<svg version="1.1" xmlns="http://www.w3.org/2000/svg" width="130" height="122" viewBox="0 0 204 192"><path d="M0 0 C67.32 0 134.64 0 204 0 C204 63.36 204 126.72 204 192 C136.68 192 69.36 192 0 192 C0 128.64 0 65.28 0 0 Z " fill="#FDFDFD" transform="translate(0,0)" /><path d="M0 0 C8.16629249 6.14481924 12.91757361 13.93177803 15.25 23.75 C15.41983398 24.44158203 15.58966797 25.13316406 15.76464844 25.84570312 C17.08881658 31.59531047 17.44964264 37.10468539 17 43 C17.928125 43.0825 18.85625 43.165 19.8125 43.25 C23 44 23 44 24.8125 45.875 C27.39257625 50.49197855 27.49470846 54.84089748 27 60 C25.42904425 64.16303272 23.54108314 67.26830729 20 70 C16.75 70.75 16.75 70.75 14 71 C13.95875 71.78375 13.9175 72.5675 13.875 73.375 C11.4836935 83.28184122 3.34782492 94.23072545 -5 100 C-4.71299415 104.78343079 -3.91902379 107.92099485 -0.71899414 111.56396484 C2.72285487 114.43926038 6.95387351 115.479017 11.1875 116.75 C12.08275391 117.04003906 12.97800781 117.33007812 13.90039062 117.62890625 C19.235311 119.31605074 24.45040025 120.53111924 29.99731445 121.28613281 C32 122 32 122 33.27807617 124.06542969 C33.51631104 124.70383789 33.7545459 125.34224609 34 126 C28.75377681 127.86436031 24.30184564 125.87914549 19.25 124.25 C18.3940625 123.98445312 17.538125 123.71890625 16.65625 123.4453125 C14.09849339 122.64698241 11.54916202 121.82530908 9 121 C7.74872314 120.60808472 7.74872314 120.60808472 6.47216797 120.20825195 C5.67955566 119.95519287 4.88694336 119.70213379 4.0703125 119.44140625 C3.36664551 119.21912354 2.66297852 118.99684082 1.93798828 118.76782227 C-2.57646301 116.97921691 -5.34207361 114.0746131 -7.875 109.9375 C-9 107 -9 107 -9 103 C-10.19625 103.495 -11.3925 103.99 -12.625 104.5 C-22.1473332 107.65408513 -31.84820447 106.78694987 -41 103 C-41.0825 103.86625 -41.165 104.7325 -41.25 105.625 C-42.48325916 111.17466622 -45.17987534 114.90236206 -49.96411133 117.97851562 C-54.53467011 120.27174238 -59.57831972 121.38169003 -64.5 122.6875 C-65.61503906 122.99494141 -66.73007813 123.30238281 -67.87890625 123.61914062 C-72.90763192 124.98870417 -77.84468913 126.20367835 -83 127 C-82.67 125.35 -82.34 123.7 -82 122 C-81.35562988 121.84442627 -80.71125977 121.68885254 -80.04736328 121.52856445 C-77.07007398 120.8022338 -74.09767288 120.05748971 -71.125 119.3125 C-69.60519531 118.94608398 -69.60519531 118.94608398 -68.0546875 118.57226562 C-60.10199065 116.558602 -51.91650339 114.33314673 -46.375 108 C-44.48118732 104.10275175 -44.48118732 104.10275175 -45 100 C-46.57551239 98.46619235 -48.27074409 97.14800821 -49.99609375 95.78515625 C-56.29001603 90.17828982 -60.90482938 81.77358519 -64 74 C-64 73.01 -64 72.02 -64 71 C-65.12148437 71.11601562 -65.12148437 71.11601562 -66.265625 71.234375 C-69 71 -69 71 -70.984375 69.390625 C-71.56703125 68.68421875 -72.1496875 67.9778125 -72.75 67.25 C-73.63945313 66.20585937 -73.63945313 66.20585937 -74.546875 65.140625 C-77.60358888 60.63772391 -77.64911441 55.28433986 -77 50 C-75.375 46.5 -75.375 46.5 -73 44 C-69.75 43.125 -69.75 43.125 -67 43 C-67.0825 41.700625 -67.165 40.40125 -67.25 39.0625 C-67.21775713 27.74525389 -64.55528874 15.64761964 -57 7 C-56.47535156 6.35675781 -55.95070313 5.71351562 -55.41015625 5.05078125 C-42.6885333 -9.22736968 -15.77552036 -8.34263715 0 0 Z " fill="#2A2A2A" transform="translate(127,36)" /><path d="M0 0 C25.08 0 50.16 0 76 0 C76.495 2.475 76.495 2.475 77 5 C78.11375 5.12375 79.2275 5.2475 80.375 5.375 C84 6 84 6 86 8 C86.77356218 13.00116946 86.48437185 17.0139573 84.25 21.5625 C82 24 82 24 78 25 C78.66 21.04 79.32 17.08 80 13 C78.68 13 77.36 13 76 13 C76.0825 13.886875 76.165 14.77375 76.25 15.6875 C76.1525233 27.8233496 69.46129699 40.7355711 61.609375 49.7421875 C55.0389037 56.04405463 48.17594011 60.10370114 38.9375 60.375 C37.28924369 60.28757299 35.64245998 60.16345509 34 60 C33.24847656 59.94070312 32.49695313 59.88140625 31.72265625 59.8203125 C23.3585455 58.61493977 16.99470099 52.77005654 11.8125 46.375 C4.78107827 36.25856702 0.287825 25.23433751 -1 13 C-1.66 13 -2.32 13 -3 13 C-2.67 16.96 -2.34 20.92 -2 25 C-7 23 -7 23 -8.8125 21 C-10.49883311 16.73979004 -10.61781497 12.53331765 -10 8 C-7.23776722 5.23776722 -4.79293383 5.42143709 -1 5 C-0.67 3.35 -0.34 1.7 0 0 Z " fill="#FAFAFA" transform="translate(64,78)" /><path d="M0 0 C4.53347246 3.75884551 5.05239613 9.44598843 6 15 C6.21367382 18.68587333 6.1958963 22.31424735 6 26 C7.3921875 26.12375 7.3921875 26.12375 8.8125 26.25 C12 27 12 27 13.8125 28.875 C16.39257625 33.49197855 16.49470846 37.84089748 16 43 C14.42904425 47.16303272 12.54108314 50.26830729 9 53 C5.75 53.75 5.75 53.75 3 54 C2.95875 54.78375 2.9175 55.5675 2.875 56.375 C0.4836935 66.28184122 -7.65217508 77.23072545 -16 83 C-15.71299415 87.78343079 -14.91902379 90.92099485 -11.71899414 94.56396484 C-8.27714513 97.43926038 -4.04612649 98.479017 0.1875 99.75 C1.08275391 100.04003906 1.97800781 100.33007812 2.90039062 100.62890625 C8.235311 102.31605074 13.45040025 103.53111924 18.99731445 104.28613281 C21 105 21 105 22.27807617 107.06542969 C22.51631104 107.70383789 22.7545459 108.34224609 23 109 C17.75377681 110.86436031 13.30184564 108.87914549 8.25 107.25 C6.96609375 106.85167969 6.96609375 106.85167969 5.65625 106.4453125 C3.09849339 105.64698241 0.54916202 104.82530908 -2 104 C-3.25127686 103.60808472 -3.25127686 103.60808472 -4.52783203 103.20825195 C-5.32044434 102.95519287 -6.11305664 102.70213379 -6.9296875 102.44140625 C-7.63335449 102.21912354 -8.33702148 101.99684082 -9.06201172 101.76782227 C-13.57646301 99.97921691 -16.34207361 97.0746131 -18.875 92.9375 C-20 90 -20 90 -20 86 C-21.19625 86.495 -22.3925 86.99 -23.625 87.5 C-33.1473332 90.65408513 -42.84820447 89.78694987 -52 86 C-52.0825 86.86625 -52.165 87.7325 -52.25 88.625 C-53.48325916 94.17466622 -56.17987534 97.90236206 -60.96411133 100.97851562 C-65.53467011 103.27174238 -70.57831972 104.38169003 -75.5 105.6875 C-76.61503906 105.99494141 -77.73007813 106.30238281 -78.87890625 106.61914062 C-83.90763192 107.98870417 -88.84468913 109.20367835 -94 110 C-93.67 108.35 -93.34 106.7 -93 105 C-92.35562988 104.84442627 -91.71125977 104.68885254 -91.04736328 104.52856445 C-88.07007398 103.8022338 -85.09767288 103.05748971 -82.125 102.3125 C-80.60519531 101.94608398 -80.60519531 101.94608398 -79.0546875 101.57226562 C-71.10199065 99.558602 -62.91650339 97.33314673 -57.375 91 C-55.48118732 87.10275175 -55.48118732 87.10275175 -56 83 C-57.57551239 81.46619235 -59.27074409 80.14800821 -60.99609375 78.78515625 C-67.29001603 73.17828982 -71.90482938 64.77358519 -75 57 C-75 56.01 -75 55.02 -75 54 C-75.74765625 54.07734375 -76.4953125 54.1546875 -77.265625 54.234375 C-80 54 -80 54 -81.984375 52.390625 C-82.56703125 51.68421875 -83.1496875 50.9778125 -83.75 50.25 C-84.34296875 49.55390625 -84.9359375 48.8578125 -85.546875 48.140625 C-88.40520343 43.92996914 -88.09606656 39.99546121 -88 35 C-84.56783356 37.28811096 -84.37645228 38.16653095 -83.125 41.9375 C-81.80385285 45.48616269 -81.31641253 46.75549941 -78.25 49.125 C-77.13625 49.558125 -77.13625 49.558125 -76 50 C-76.33 48.948125 -76.66 47.89625 -77 46.8125 C-77.83966782 43.61126643 -78.19750904 41.2588992 -78 38 C-76.68 38 -75.36 38 -74 38 C-73.89042969 38.60585937 -73.78085938 39.21171875 -73.66796875 39.8359375 C-70.75458197 55.23188391 -65.34978684 69.74088793 -52.6875 79.8125 C-46.12864237 84.18507176 -37.68703254 84.9224439 -30 84 C-20.11639431 81.59752354 -13.0423896 75.65969286 -7.72924805 67.09741211 C-2.48251607 58.10775721 1.03146757 48.41172363 2 38 C3.32 38 4.64 38 6 38 C5.85904936 39.6254308 5.71207913 41.25034051 5.5625 42.875 C5.44068359 44.23238281 5.44068359 44.23238281 5.31640625 45.6171875 C5 48 5 48 4 50 C7.63378111 48.08748363 9.52460576 46.85506237 11 43 C11.27717025 40.44352617 11.27717025 40.44352617 11.1875 37.8125 C11.18105469 36.93207031 11.17460937 36.05164063 11.16796875 35.14453125 C11.23510464 33.01852688 11.23510464 33.01852688 10 32 C8.845 31.835 7.69 31.67 6.5 31.5 C3 31 3 31 2 30 C2 28.02 2 26.04 2 24 C-23.08 24 -48.16 24 -74 24 C-74 23.01 -74 22.02 -74 21 C-48.92 21 -23.84 21 2 21 C1.01 16.05 0.02 11.1 -1 6 C-1.495 3.525 -1.495 3.525 -2 1 C-1.34 0.67 -0.68 0.34 0 0 Z " fill="#282828" transform="translate(138,53)" /><path d="M0 0 C2.96473953 6.8317911 3.27630651 11.03937156 4 19 C-21.08 19 -46.16 19 -72 19 C-72 13.03527231 -71.72577473 10.2851851 -70 5 C-63.40783003 4.27202959 -56.8138681 3.56221939 -50.21850586 2.86376953 C-47.98500538 2.62522637 -45.75191058 2.38284689 -43.51928711 2.13623047 C-28.94910857 0.53006906 -14.6596016 -0.34952358 0 0 Z " fill="#F5F5F5" transform="translate(136,55)" /><path d="M0 0 C4.53347246 3.75884551 5.05239613 9.44598843 6 15 C6.21367382 18.68587333 6.1958963 22.31424735 6 26 C7.3921875 26.12375 7.3921875 26.12375 8.8125 26.25 C12 27 12 27 13.8125 28.875 C16.39257625 33.49197855 16.49470846 37.84089748 16 43 C14.42904425 47.16303272 12.54108314 50.26830729 9 53 C5.75 53.75 5.75 53.75 3 54 C3 54.99 3 55.98 3 57 C1.35 57.33 -0.3 57.66 -2 58 C-0.66666667 51.33333333 0.66666667 44.66666667 2 38 C3.32 38 4.64 38 6 38 C5.85904936 39.6254308 5.71207913 41.25034051 5.5625 42.875 C5.44068359 44.23238281 5.44068359 44.23238281 5.31640625 45.6171875 C5 48 5 48 4 50 C7.63378111 48.08748363 9.52460576 46.85506237 11 43 C11.27717025 40.44352617 11.27717025 40.44352617 11.1875 37.8125 C11.18105469 36.93207031 11.17460937 36.05164063 11.16796875 35.14453125 C11.23510464 33.01852688 11.23510464 33.01852688 10 32 C8.845 31.835 7.69 31.67 6.5 31.5 C3 31 3 31 2 30 C2 28.02 2 26.04 2 24 C-23.08 24 -48.16 24 -74 24 C-74 23.01 -74 22.02 -74 21 C-48.92 21 -23.84 21 2 21 C1.01 16.05 0.02 11.1 -1 6 C-1.495 3.525 -1.495 3.525 -2 1 C-1.34 0.67 -0.68 0.34 0 0 Z " fill="#191919" transform="translate(138,53)" /><path d="M0 0 C0.95197266 -0.02900391 1.90394531 -0.05800781 2.88476562 -0.08789062 C11.98573084 -0.16843014 19.74983924 2.01686309 26.5 8.375 C27.23347656 9.04660156 27.96695313 9.71820313 28.72265625 10.41015625 C30.4375 12.3125 30.4375 12.3125 31.4375 15.3125 C28.77147504 15.65181227 26.10486986 15.98407176 23.4375 16.3125 C22.69371094 16.40789063 21.94992188 16.50328125 21.18359375 16.6015625 C18.93692548 16.87506994 16.69127078 17.10594763 14.4375 17.3125 C13.40701538 17.41630981 13.40701538 17.41630981 12.35571289 17.5222168 C6.70185713 17.84460687 3.41840067 16.12070096 -1.125 13.125 C-1.74568359 12.73763672 -2.36636719 12.35027344 -3.00585938 11.95117188 C-7.31026786 9.23566913 -11.44219539 6.29799742 -15.5625 3.3125 C-11.35286438 -0.89713562 -5.58047454 0.05510673 0 0 Z " fill="#F5F5F5" transform="translate(101.5625,34.6875)" /><path d="M0 0 C2.28843166 0.86423664 4.13615142 1.93916798 6.17871094 3.28540039 C6.9328125 3.7784668 7.68691406 4.2715332 8.46386719 4.77954102 C9.62982422 5.55394531 9.62982422 5.55394531 10.81933594 6.34399414 C12.00849609 7.12419922 12.00849609 7.12419922 13.22167969 7.92016602 C15.17426414 9.20228472 17.12326981 10.48951188 19.06933594 11.78149414 C15.97114458 13.84695505 14.82378107 14.10745805 11.24511719 14.41430664 C9.82489258 14.53999023 9.82489258 14.53999023 8.37597656 14.66821289 C7.38791016 14.7468457 6.39984375 14.82547852 5.38183594 14.90649414 C3.92874023 15.03604492 3.92874023 15.03604492 2.44628906 15.16821289 C-3.03381514 15.63507775 -8.43156852 15.87281957 -13.93066406 15.78149414 C-12.71864063 10.39472334 -6.66688471 -0.75453488 0 0 Z " fill="#F3F3F3" transform="translate(81.9306640625,40.218505859375)" /><path d="M0 0 C0.33 0 0.66 0 1 0 C1.66 2.97 2.32 5.94 3 9 C27.75 9.33 52.5 9.66 78 10 C78 10.33 78 10.66 78 11 C52.92 11 27.84 11 2 11 C2 12.65 2 14.3 2 16 C0.06729418 17.93270582 -3.38641388 17.62663055 -6 18 C-7.96822886 19.96822886 -7.66248381 23.34808709 -8 26 C-8.99 26 -9.98 26 -11 26 C-12.01767345 21.75969395 -12.29657841 19.64060936 -10.4375 15.625 C-7.59634588 12.56529557 -6.09735408 12.18624337 -2 12 C-2.02320313 11.30132812 -2.04640625 10.60265625 -2.0703125 9.8828125 C-2.08835937 8.97273438 -2.10640625 8.06265625 -2.125 7.125 C-2.14820313 6.22007813 -2.17140625 5.31515625 -2.1953125 4.3828125 C-2 2 -2 2 0 0 Z " fill="#565656" transform="translate(62,67)" /><path d="M0 0 C0.99 0.33 1.98 0.66 3 1 C3 1.66 3 2.32 3 3 C4.25554687 2.855625 5.51109375 2.71125 6.8046875 2.5625 C30.50563183 -0.09749615 30.50563183 -0.09749615 36 3 C36 3.33 36 3.66 36 4 C31.66749763 4.50737777 27.33388373 5.00457148 23 5.5 C21.77925781 5.64308594 20.55851562 5.78617188 19.30078125 5.93359375 C13.1593321 6.63073122 7.18121183 7.18543635 1 7 C0.34 10.96 -0.32 14.92 -1 19 C-1.99 18.34 -2.98 17.68 -4 17 C-3.67373505 10.67721029 -3.38495108 5.44535609 0 0 Z " fill="#232323" transform="translate(65,53)" /><path d="M0 0 C0.66 0.33 1.32 0.66 2 1 C3.73924528 6.21773583 3.69228935 11.16543322 1.75 16.3125 C-0.8822367 20.3548635 -2.42421346 22.63635695 -7.25 23.75 C-8.61125 23.87375 -8.61125 23.87375 -10 24 C-10 24.99 -10 25.98 -10 27 C-11.65 27.33 -13.3 27.66 -15 28 C-13.66666667 21.33333333 -12.33333333 14.66666667 -11 8 C-9.68 8 -8.36 8 -7 8 C-7.14095064 9.6254308 -7.28792087 11.25034051 -7.4375 12.875 C-7.51871094 13.77992187 -7.59992188 14.68484375 -7.68359375 15.6171875 C-8 18 -8 18 -9 20 C-5.36871554 18.08879765 -3.43348151 16.87570928 -2 13 C-1.75889241 9.94985072 -1.75889241 9.94985072 -1.875 6.75 C-1.90207031 5.13351563 -1.90207031 5.13351563 -1.9296875 3.484375 C-1.95289063 2.66453125 -1.97609375 1.8446875 -2 1 C-1.34 0.67 -0.68 0.34 0 0 Z " fill="#242424" transform="translate(151,83)" /><path d="M0 0 C0.99 0.33 1.98 0.66 3 1 C2.45912682 4.78611227 0.88277668 6.55400767 -2 9 C-2.66 9 -3.32 9 -4 9 C-4 9.66 -4 10.32 -4 11 C-1.69 11 0.62 11 3 11 C2.52120052 15.28924535 0.0280703 17.24317173 -3 20.125 C-6.44052785 23.2335286 -6.44052785 23.2335286 -9 27 C-10.32 26.67 -11.64 26.34 -13 26 C-12.52794881 21.75153925 -10.11122478 19.73180712 -7 17 C-6.34 17 -5.68 17 -5 17 C-5 16.34 -5 15.68 -5 15 C-6.98 15 -8.96 15 -11 15 C-11 11 -11 11 -8.59375 8.203125 C-7.57248913 7.20839039 -6.5407803 6.22429311 -5.5 5.25 C-4.97535156 4.74339844 -4.45070312 4.23679687 -3.91015625 3.71484375 C-2.61558637 2.46734913 -1.3089224 1.23242693 0 0 Z " fill="#292929" transform="translate(156,29)" /><path d="M0 0 C3.90285767 1.58667578 6.33520982 4.13350481 9.25 7.125 C10.14203125 8.03507812 11.0340625 8.94515625 11.953125 9.8828125 C12.62859375 10.58148438 13.3040625 11.28015625 14 12 C13.67 12.99 13.34 13.98 13 15 C11.02 15 9.04 15 7 15 C7.763125 15.763125 8.52625 16.52625 9.3125 17.3125 C10.199375 18.199375 11.08625 19.08625 12 20 C12.61875 20.515625 13.2375 21.03125 13.875 21.5625 C14.24625 22.036875 14.6175 22.51125 15 23 C14.6875 25.1875 14.6875 25.1875 14 27 C11 27 11 27 9.3515625 25.42578125 C8.78179687 24.72839844 8.21203125 24.03101562 7.625 23.3125 C5.53128769 20.79648902 3.4607614 18.41494506 1.0625 16.1875 C-1 14 -1 14 -1 11 C1.31 11 3.62 11 6 11 C6 10.34 6 9.68 6 9 C5.401875 8.731875 4.80375 8.46375 4.1875 8.1875 C1.95406717 6.97506504 0.50061801 6.05347727 -1 4 C-0.6875 1.8125 -0.6875 1.8125 0 0 Z " fill="#292929" transform="translate(46,29)" /><path d="M0 0 C2.92017588 0.41716798 4.83978125 0.89519576 7.33081055 2.5246582 C10.36407502 4.20123528 12.08548018 4.35052268 15.51953125 4.29296875 C17.0519043 4.2784668 17.0519043 4.2784668 18.61523438 4.26367188 C19.67033203 4.23853516 20.72542969 4.21339844 21.8125 4.1875 C22.88693359 4.17396484 23.96136719 4.16042969 25.06835938 4.14648438 C27.71275455 4.11122577 30.35611748 4.06194366 33 4 C33 4.99 33 5.98 33 7 C29.12577792 7.50615271 25.25051183 8.00382721 21.375 8.5 C20.28058594 8.64308594 19.18617187 8.78617188 18.05859375 8.93359375 C16.46337891 9.13662109 16.46337891 9.13662109 14.8359375 9.34375 C13.86188965 9.46943359 12.8878418 9.59511719 11.88427734 9.72460938 C3.78794118 10.49764706 3.78794118 10.49764706 0.625 8.5 C0.08875 8.005 -0.4475 7.51 -1 7 C-0.01 6.34 0.98 5.68 2 5 C1.01 4.01 0.02 3.02 -1 2 C-0.67 1.34 -0.34 0.68 0 0 Z " fill="#2A2A2A" transform="translate(98,47)" /><path d="M0 0 C4.05119087 -0.08619555 6.09310555 0.28939646 9.328125 2.82421875 C13.75080863 7.13706753 17.46091319 11.3447612 20 17 C19.67 17.66 19.34 18.32 19 19 C15.98509443 20.00496852 13.95818308 20.10335303 10.8125 20.0625 C9.91144531 20.05347656 9.01039063 20.04445313 8.08203125 20.03515625 C7.39496094 20.02355469 6.70789063 20.01195313 6 20 C6 19.67 6 19.34 6 19 C7.65 19 9.3 19 11 19 C11 18.01 11 17.02 11 16 C9.68 15.67 8.36 15.34 7 15 C8.65 14.67 10.3 14.34 12 14 C7.94211018 8.52799707 4.26223021 5.69923716 -2 3 C-1.34 2.67 -0.68 2.34 0 2 C0 1.34 0 0.68 0 0 Z " fill="#3A3A3A" transform="translate(120,35)" /><path d="M0 0 C0.99 0.33 1.98 0.66 3 1 C2.6875 2.9375 2.6875 2.9375 2 5 C1.01 5.33 0.02 5.66 -1 6 C-1 6.66 -1 7.32 -1 8 C0.32 8 1.64 8 3 8 C3 12 3 12 1.390625 13.8515625 C0.68421875 14.43679687 -0.0221875 15.02203125 -0.75 15.625 C-1.44609375 16.21539062 -2.1421875 16.80578125 -2.859375 17.4140625 C-4.84526351 18.88535946 -6.75581655 19.97899762 -9 21 C-9 16.31908701 -8.00354129 15.37898396 -5 12 C-6.32 11.67 -7.64 11.34 -9 11 C-7.59155282 7.78475695 -5.89655214 5.67816132 -3.375 3.25 C-2.74335938 2.63640625 -2.11171875 2.0228125 -1.4609375 1.390625 C-0.73777344 0.70226563 -0.73777344 0.70226563 0 0 Z " fill="#252525" transform="translate(166,50)" /><path d="M0 0 C3.21524305 1.40844718 5.32183868 3.10344786 7.75 5.625 C8.67039062 6.57246094 8.67039062 6.57246094 9.609375 7.5390625 C10.29773438 8.26222656 10.29773438 8.26222656 11 9 C10.67 9.99 10.34 10.98 10 12 C9.01 12 8.02 12 7 12 C7.845625 12.928125 8.69125 13.85625 9.5625 14.8125 C11.00390625 16.39453125 11.00390625 16.39453125 12 18 C11.67 18.99 11.34 19.98 11 21 C7.86340338 19.57298983 5.37619467 17.85240215 2.75 15.625 C1.69039062 14.74714844 1.69039062 14.74714844 0.609375 13.8515625 C-1 12 -1 12 -1 8 C0.32 8 1.64 8 3 8 C2.319375 7.4225 1.63875 6.845 0.9375 6.25 C0.298125 5.5075 -0.34125 4.765 -1 4 C-0.75 1.75 -0.75 1.75 0 0 Z " fill="#2A2A2A" transform="translate(36,50)" /><path d="M0 0 C0.99 0.33 1.98 0.66 3 1 C2.45912682 4.78611227 0.88277668 6.55400767 -2 9 C-2.66 9 -3.32 9 -4 9 C-4 11.31 -4 13.62 -4 16 C-6.31 15.67 -8.62 15.34 -11 15 C-11 11 -11 11 -8.59375 8.203125 C-7.57248913 7.20839039 -6.5407803 6.22429311 -5.5 5.25 C-4.97535156 4.74339844 -4.45070312 4.23679687 -3.91015625 3.71484375 C-2.61558637 2.46734913 -1.3089224 1.23242693 0 0 Z " fill="#303030" transform="translate(156,29)" /><path d="M0 0 C3.90285767 1.58667578 6.33520982 4.13350481 9.25 7.125 C10.14203125 8.03507812 11.0340625 8.94515625 11.953125 9.8828125 C12.62859375 10.58148438 13.3040625 11.28015625 14 12 C13.67 12.99 13.34 13.98 13 15 C10.69 15.33 8.38 15.66 6 16 C6 13.69 6 11.38 6 9 C5.401875 8.731875 4.80375 8.46375 4.1875 8.1875 C1.95406717 6.97506504 0.50061801 6.05347727 -1 4 C-0.6875 1.8125 -0.6875 1.8125 0 0 Z " fill="#303030" transform="translate(46,29)" /><path d="M0 0 C5.28 0 10.56 0 16 0 C16.33 1.32 16.66 2.64 17 4 C11.06 4 5.12 4 -1 4 C-0.67 2.68 -0.34 1.36 0 0 Z " fill="#2B2B2B" transform="translate(94,111)" /><path d="M0 0 C3.41610567 2.27740378 3.61888278 3.12888052 4.875 6.875 C6.48046291 11.18112533 7.96932273 13.53680834 12 16 C11.34 16 10.68 16 10 16 C10 16.66 10 17.32 10 18 C6.58540955 17.74706737 5.75204681 16.74051411 3.3125 14.1875 C-0.26744098 9.25298676 -0.11651801 6.05893652 0 0 Z " fill="#232323" transform="translate(50,88)" /><path d="M0 0 C7.425 0.99 7.425 0.99 15 2 C14.67 3.32 14.34 4.64 14 6 C12.06318839 6.08107583 10.1254066 6.13922475 8.1875 6.1875 C7.10855469 6.22230469 6.02960938 6.25710937 4.91796875 6.29296875 C2 6 2 6 0.11328125 4.48828125 C-0.43779297 3.75158203 -0.43779297 3.75158203 -1 3 C-0.67 2.01 -0.34 1.02 0 0 Z " fill="#252525" transform="translate(115,89)" /><path d="M0 0 C0.69738281 0.00451172 1.39476563 0.00902344 2.11328125 0.01367188 C3.82555803 0.0253998 5.53779033 0.04333347 7.25 0.0625 C7.25 1.0525 7.25 2.0425 7.25 3.0625 C3.25204108 4.01869733 -0.45803922 4.1664592 -4.5625 4.125 C-5.72394531 4.11597656 -6.88539062 4.10695313 -8.08203125 4.09765625 C-8.96246094 4.08605469 -9.84289062 4.07445312 -10.75 4.0625 C-11.08 3.0725 -11.41 2.0825 -11.75 1.0625 C-7.88276369 -0.20332219 -4.01848738 -0.0493765 0 0 Z " fill="#141414" transform="translate(123.75,50.9375)" /><path d="M0 0 C2.0625 0.4375 2.0625 0.4375 4 1 C2.25 4.875 2.25 4.875 0 6 C-1.87379605 6.07033769 -3.75001102 6.0843022 -5.625 6.0625 C-6.62789063 6.05347656 -7.63078125 6.04445313 -8.6640625 6.03515625 C-9.43492188 6.02355469 -10.20578125 6.01195313 -11 6 C-11.33 4.68 -11.66 3.36 -12 2 C-11.21753906 1.93941406 -10.43507813 1.87882812 -9.62890625 1.81640625 C-8.61699219 1.73261719 -7.60507813 1.64882812 -6.5625 1.5625 C-5.55316406 1.48128906 -4.54382813 1.40007812 -3.50390625 1.31640625 C-1.06359221 1.26788532 -1.06359221 1.26788532 0 0 Z " fill="#262626" transform="translate(86,89)" /><path d="M0 0 C-0.97358315 4.332445 -2.45125941 8.3361854 -5 12 C-7.75 13 -7.75 13 -10 13 C-9.42176162 8.22953336 -7.53971712 5.00197849 -5 1 C-3 0 -3 0 0 0 Z " fill="#323232" transform="translate(140,110)" /><path d="M0 0 C0.99 0 1.98 0 3 0 C3.33 0.99 3.66 1.98 4 3 C-2.14285714 8.57142857 -2.14285714 8.57142857 -7 9 C-7.66 7.68 -8.32 6.36 -9 5 C-8.43410156 4.72285156 -7.86820312 4.44570312 -7.28515625 4.16015625 C-6.55167969 3.79792969 -5.81820312 3.43570313 -5.0625 3.0625 C-3.96615234 2.52302734 -3.96615234 2.52302734 -2.84765625 1.97265625 C-1.03750973 1.13628173 -1.03750973 1.13628173 0 0 Z " fill="#323232" transform="translate(79,146)" /><path d="M0 0 C0 0.99 0 1.98 0 3 C-0.66 3 -1.32 3 -2 3 C-2 3.66 -2 4.32 -2 5 C-5.3 5.66 -8.6 6.32 -12 7 C-11.67 5.35 -11.34 3.7 -11 2 C-3.375 0 -3.375 0 0 0 Z " fill="#2E2E2E" transform="translate(56,156)" /><path d="M0 0 C1.4375 2.0625 1.4375 2.0625 2 4 C-2.29299643 5.26264601 -4.87831311 4.62950412 -9 3 C-9 2.01 -9 1.02 -9 0 C-5.81926598 -1.59036701 -3.37573597 -0.78365299 0 0 Z " fill="#242424" transform="translate(159,158)" /><path d="M0 0 C3.36895649 0.27315863 4.65759734 0.61341635 6.9375 3.1875 C8.31413487 6.83153347 7.54072264 8.51310139 6 12 C0 4.28571429 0 4.28571429 0 0 Z " fill="#323232" transform="translate(64,110)" /><path d="M0 0 C5.61 0.66 11.22 1.32 17 2 C17 2.99 17 3.98 17 5 C13.04 5 9.08 5 5 5 C5 4.01 5 3.02 5 2 C3.35 1.67 1.7 1.34 0 1 C0 0.67 0 0.34 0 0 Z " fill="#4A4A4A" transform="translate(91,136)" /><path d="M0 0 C2.04219706 1.69179328 2.91793306 2.63727666 3.51171875 5.26171875 C3.56972656 6.06222656 3.62773437 6.86273438 3.6875 7.6875 C3.75324219 8.49574219 3.81898438 9.30398437 3.88671875 10.13671875 C3.92410156 10.75160156 3.96148437 11.36648437 4 12 C3.01 12.33 2.02 12.66 1 13 C0.46809459 11.56656 -0.05015258 10.12804633 -0.5625 8.6875 C-0.85253906 7.88699219 -1.14257812 7.08648437 -1.44140625 6.26171875 C-2 4 -2 4 -1 1 C-0.67 0.67 -0.34 0.34 0 0 Z " fill="#1C1C1C" transform="translate(138,53)" /><path d="M0 0 C0.99 0.33 1.98 0.66 3 1 C3.33 4.63 3.66 8.26 4 12 C3.01 12.33 2.02 12.66 1 13 C-0.2834998 8.9088444 -1.38021934 5.3091525 -1 1 C-0.67 0.67 -0.34 0.34 0 0 Z " fill="#2A2A2A" transform="translate(61,90)" /><path d="M0 0 C-1.26117725 3.88862987 -2.45264167 5.89375599 -6 8 C-6.66 8 -7.32 8 -8 8 C-9.34882408 8.63474075 -10.6846659 9.29848848 -12 10 C-11.09373216 8.7010161 -10.17450463 7.41106833 -9.25 6.125 C-8.73953125 5.40570313 -8.2290625 4.68640625 -7.703125 3.9453125 C-5.46176947 1.3852321 -3.45101717 0 0 0 Z " fill="#202020" transform="translate(134,121)" /><path d="M0 0 C1.5625 1.625 1.5625 1.625 3 4 C2.86321065 7.35133916 2.60270411 9.27675506 0.4375 11.875 C-0.2740625 12.431875 -0.2740625 12.431875 -1 13 C-1 12.34 -1 11.68 -1 11 C-1.66 10.67 -2.32 10.34 -3 10 C-2.690625 9.46375 -2.38125 8.9275 -2.0625 8.375 C-0.82172561 5.6015043 -0.4090325 2.99957163 0 0 Z " fill="#1B1B1B" transform="translate(83,135)" /><path d="M0 0 C1.32 0.33 2.64 0.66 4 1 C3.375 2.9375 3.375 2.9375 2 5 C-1 5.875 -1 5.875 -4 6 C-4.66 5.34 -5.32 4.68 -6 4 C-4.35 3.67 -2.7 3.34 -1 3 C-0.67 2.01 -0.34 1.02 0 0 Z " fill="#363636" transform="translate(86,89)" /><path d="M0 0 C2.875 0.3125 2.875 0.3125 6 1 C6.66 1.99 7.32 2.98 8 4 C7.34 4.66 6.68 5.32 6 6 C3.8359375 5.9765625 3.8359375 5.9765625 1.375 5.625 C0.55773437 5.51414062 -0.25953125 5.40328125 -1.1015625 5.2890625 C-1.72804687 5.19367188 -2.35453125 5.09828125 -3 5 C-3 4.67 -3 4.34 -3 4 C-1.35 4 0.3 4 2 4 C2 3.01 2 2.02 2 1 C1.34 0.67 0.68 0.34 0 0 Z " fill="#404040" transform="translate(144,79)" /><path d="M0 0 C7.75 0.75 7.75 0.75 10 3 C9.67 3.66 9.34 4.32 9 5 C5.37 4.34 1.74 3.68 -2 3 C-1.34 2.01 -0.68 1.02 0 0 Z " fill="#171717" transform="translate(111,32)" /><path d="M0 0 C0.33 0.99 0.66 1.98 1 3 C-0.98 3.99 -0.98 3.99 -3 5 C-3 5.66 -3 6.32 -3 7 C-1.68 7 -0.36 7 1 7 C0.67 8.32 0.34 9.64 0 11 C0 10.01 0 9.02 0 8 C-1.32 8 -2.64 8 -4 8 C-4 7.34 -4 6.68 -4 6 C-4.66 5.67 -5.32 5.34 -6 5 C-4.02 3.35 -2.04 1.7 0 0 Z " fill="#404040" transform="translate(168,51)" /><path d="M0 0 C0.99 0.33 1.98 0.66 3 1 C2.67 3.97 2.34 6.94 2 10 C1.01 10 0.02 10 -1 10 C-2.25 3.375 -2.25 3.375 0 0 Z " fill="#2A2A2A" transform="translate(52,83)" /><path d="M0 0 C4.455 0.99 4.455 0.99 9 2 C8.01 2.495 8.01 2.495 7 3 C7 3.66 7 4.32 7 5 C1.25 4.25 1.25 4.25 -1 2 C-0.67 1.34 -0.34 0.68 0 0 Z " fill="#191919" transform="translate(143,155)" /><path d="M0 0 C1.32 0 2.64 0 4 0 C3.67 2.97 3.34 5.94 3 9 C2.67 8.34 2.34 7.68 2 7 C1.34 7 0.68 7 0 7 C0 4.69 0 2.38 0 0 Z " fill="#1C1C1C" transform="translate(140,91)" /><path d="M0 0 C2 1 2 1 2.6875 2.75 C3.05449975 5.39239823 2.64331769 7.42672922 2 10 C1.01 10 0.02 10 -1 10 C-1.33 7.03 -1.66 4.06 -2 1 C-1.34 0.67 -0.68 0.34 0 0 Z " fill="#282828" transform="translate(151,83)" /><path d="M0 0 C0.33 0 0.66 0 1 0 C1 2.64 1 5.28 1 8 C1.66 8 2.32 8 3 8 C3 8.99 3 9.98 3 11 C1.35 11 -0.3 11 -2 11 C-2 9.35 -2 7.7 -2 6 C-1.67 6 -1.34 6 -1 6 C-0.67 4.02 -0.34 2.04 0 0 Z " fill="#151515" transform="translate(143,72)" /><path d="M0 0 C1.485 0.99 1.485 0.99 3 2 C2.67 4.97 2.34 7.94 2 11 C1.01 10.34 0.02 9.68 -1 9 C-0.67 6.03 -0.34 3.06 0 0 Z " fill="#131313" transform="translate(62,61)" /><path d="M0 0 C2.0625 0.4375 2.0625 0.4375 4 1 C4 1.66 4 2.32 4 3 C4.66 3.33 5.32 3.66 6 4 C6 4.66 6 5.32 6 6 C3.625 5.75 3.625 5.75 1 5 C-0.3125 2.9375 -0.3125 2.9375 -1 1 C-0.67 0.67 -0.34 0.34 0 0 Z " fill="#414141" transform="translate(115,89)" /><path d="M0 0 C2.6875 -0.3125 2.6875 -0.3125 5 0 C4.67 1.32 4.34 2.64 4 4 C1.69 4.33 -0.62 4.66 -3 5 C-1.8125 2.5 -1.8125 2.5 0 0 Z " fill="#292929" transform="translate(91,31)" /><path d="M0 0 C1.5625 1.8125 1.5625 1.8125 3 4 C2.67 4.99 2.34 5.98 2 7 C0.35 7 -1.3 7 -3 7 C-1.125 1.125 -1.125 1.125 0 0 Z " fill="#393939" transform="translate(67,47)" /><path d="M0 0 C0.1953125 6.0546875 0.1953125 6.0546875 0 8 C-0.66 8.66 -1.32 9.32 -2 10 C-2 9.34 -2 8.68 -2 8 C-2.66 8 -3.32 8 -4 8 C-3.74438677 5.6568787 -3.40729228 3.32156597 -3 1 C-1 0 -1 0 0 0 Z " fill="#161616" transform="translate(154,88)" /><path d="M0 0 C2.64 0 5.28 0 8 0 C8.33 0.99 8.66 1.98 9 3 C6.36 3 3.72 3 1 3 C0.67 2.01 0.34 1.02 0 0 Z " fill="#141414" transform="translate(112,52)" /><path d="M0 0 C1.32 0 2.64 0 4 0 C4.33 0.99 4.66 1.98 5 3 C0.375 5.125 0.375 5.125 -3 4 C-2.34 4 -1.68 4 -1 4 C-0.67 2.68 -0.34 1.36 0 0 Z " fill="#1B1B1B" transform="translate(57,155)" /><path d="M0 0 C1.98 0 3.96 0 6 0 C6 0.66 6 1.32 6 2 C7.32 2.33 8.64 2.66 10 3 C6.7 3 3.4 3 0 3 C0 2.01 0 1.02 0 0 Z " fill="#111111" transform="translate(72,56)" /><path d="M0 0 C0.33 1.32 0.66 2.64 1 4 C0.01 4.66 -0.98 5.32 -2 6 C-5 4 -5 4 -6 2 C-4.02 1.34 -2.04 0.68 0 0 Z " fill="#343434" transform="translate(114,135)" /><path d="M0 0 C0.99 0.99 1.98 1.98 3 3 C2.34 4.32 1.68 5.64 1 7 C0.01 6.01 -0.98 5.02 -2 4 C-1 1 -1 1 0 0 Z " fill="#222222" transform="translate(138,53)" /><path d="M0 0 C0.33 0 0.66 0 1 0 C1.66 2.97 2.32 5.94 3 9 C2.01 9 1.02 9 0 9 C-0.66 8.34 -1.32 7.68 -2 7 C-1.60467975 4.54901444 -0.78698574 2.36095721 0 0 Z " fill="#171717" transform="translate(120,136)" /><path d="M0 0 C0.66 0.99 1.32 1.98 2 3 C0.35 4.32 -1.3 5.64 -3 7 C-3.66 6.34 -4.32 5.68 -5 5 C-3.35 3.35 -1.7 1.7 0 0 Z " fill="#2E2E2E" transform="translate(127,127)" /><path d="M0 0 C3 2 3 2 3.6875 5.125 C3.8421875 6.548125 3.8421875 6.548125 4 8 C3.01 8.66 2.02 9.32 1 10 C-0.1577506 6.52674819 -0.06866652 3.63932552 0 0 Z " fill="#111111" transform="translate(50,88)" /><path d="M0 0 C0.66 0 1.32 0 2 0 C2 0.99 2 1.98 2 3 C4.31 3 6.62 3 9 3 C9 3.33 9 3.66 9 4 C3.62694301 4.96891192 3.62694301 4.96891192 1 5 C-1 3.5625 -1 3.5625 -2 2 C-1.34 1.34 -0.68 0.68 0 0 Z " fill="#444444" transform="translate(54,80)" /><path d="M0 0 C1.4800841 0.11362262 2.95910074 0.24122908 4.4375 0.375 C5.26121094 0.44460937 6.08492188 0.51421875 6.93359375 0.5859375 C7.95646484 0.79089844 7.95646484 0.79089844 9 1 C9.33 1.66 9.66 2.32 10 3 C8.5199159 2.88637738 7.04089926 2.75877092 5.5625 2.625 C4.73878906 2.55539063 3.91507812 2.48578125 3.06640625 2.4140625 C2.38449219 2.27742188 1.70257813 2.14078125 1 2 C0.67 1.34 0.34 0.68 0 0 Z " fill="#121212" transform="translate(91,54)" /><path d="M0 0 C2.875 0.25 2.875 0.25 6 1 C7.375 3.0625 7.375 3.0625 8 5 C6.35 5.33 4.7 5.66 3 6 C3.66 5.67 4.32 5.34 5 5 C5 4.01 5 3.02 5 2 C3.35 1.67 1.7 1.34 0 1 C0 0.67 0 0.34 0 0 Z " fill="#616161" transform="translate(153,157)" /><path d="M0 0 C3.46941546 0.45822468 6.67395049 0.89131683 10 2 C10 2.66 10 3.32 10 4 C8.35 4 6.7 4 5 4 C4.67 3.01 4.34 2.02 4 1 C1.98491642 0.26676204 1.98491642 0.26676204 0 0 Z " fill="#404040" transform="translate(116,51)" /><path d="M0 0 C0.99 0 1.98 0 3 0 C3.33 0.99 3.66 1.98 4 3 C3.34 3 2.68 3 2 3 C1.67 3.99 1.34 4.98 1 6 C0.34 6 -0.32 6 -1 6 C-0.67 4.02 -0.34 2.04 0 0 Z " fill="#2C2C2C" transform="translate(139,98)" /><path d="M0 0 C1.0625 1.8125 1.0625 1.8125 2 4 C1 7 1 7 -1 8 C-1.33 5.69 -1.66 3.38 -2 1 C-1.34 0.67 -0.68 0.34 0 0 Z " fill="#101010" transform="translate(63,95)" /><path d="M0 0 C1.98 0 3.96 0 6 0 C6 0.66 6 1.32 6 2 C6.66 2 7.32 2 8 2 C8 2.66 8 3.32 8 4 C5.03 3.505 5.03 3.505 2 3 C2 2.34 2 1.68 2 1 C1.34 0.67 0.68 0.34 0 0 Z " fill="#353535" transform="translate(76,55)" /><path d="M0 0 C0.33 0.99 0.66 1.98 1 3 C-0.65 3.33 -2.3 3.66 -4 4 C-4.33 3.01 -4.66 2.02 -5 1 C-3 0 -3 0 0 0 Z " fill="#181818" transform="translate(71,152)" /><path d="M0 0 C0.33 0 0.66 0 1 0 C1 1.65 1 3.3 1 5 C-1.31 5 -3.62 5 -6 5 C-6 4.01 -6 3.02 -6 2 C-5.01 2 -4.02 2 -3 2 C-3 2.66 -3 3.32 -3 4 C-2.01 4 -1.02 4 0 4 C0 2.68 0 1.36 0 0 Z " fill="#1B1B1B" transform="translate(62,78)" /><path d="M0 0 C4.75 0.75 4.75 0.75 7 3 C4.69 3.33 2.38 3.66 0 4 C-0.33 3.34 -0.66 2.68 -1 2 C-0.67 1.34 -0.34 0.68 0 0 Z " fill="#333333" transform="translate(98,47)" /><path d="M0 0 C-0.33 1.98 -0.66 3.96 -1 6 C-2.32 5.67 -3.64 5.34 -5 5 C-4.625 3.0625 -4.625 3.0625 -4 1 C-2 0 -2 0 0 0 Z " fill="#454545" transform="translate(81,35)" /></svg>