<svg version="1.1" xmlns="http://www.w3.org/2000/svg" width="109" height="122" viewBox="0 0 212 237"><path d="M0 0 C69.96 0 139.92 0 212 0 C212 78.21 212 156.42 212 237 C142.04 237 72.08 237 0 237 C0 158.79 0 80.58 0 0 Z " fill="#FEC969" transform="translate(0,0)" /><path d="M0 0 C69.96 0 139.92 0 212 0 C212 78.21 212 156.42 212 237 C142.04 237 72.08 237 0 237 C0 158.79 0 80.58 0 0 Z M80 17 C78.89269531 17.26683594 77.78539063 17.53367187 76.64453125 17.80859375 C67.72822375 20.25216158 59.98287675 24.4509748 52 29 C52 29.66 52 30.32 52 31 C51.26523437 31.26554687 50.53046875 31.53109375 49.7734375 31.8046875 C42.25692904 35.04419678 35.72620956 41.38938535 31 48 C31 48.66 31 49.32 31 50 C30.34 50 29.68 50 29 50 C26.60179695 52.63684747 26.60179695 52.63684747 26 56 C25.34 56 24.68 56 24 56 C9.56756791 83.91904945 3.64169142 110.84744016 12.5 141.5 C13.85296857 145.72355269 15.39277894 149.86714585 17 154 C17.66 154 18.32 154 19 154 C19.103125 154.928125 19.20625 155.85625 19.3125 156.8125 C20.04812977 160.22314712 20.5624441 160.75744857 23 163 C23.28875 163.78375 23.5775 164.5675 23.875 165.375 C25.01497927 168.03495163 26.30062508 169.47701254 28.39453125 171.4296875 C30.46709103 173.45686276 32.33960511 175.63204929 34.25 177.8125 C43.28496837 187.8612932 53.28795951 196.0564287 66 201 C66.6496875 201.31582031 67.299375 201.63164062 67.96875 201.95703125 C89.35736957 212.30261354 115.82846057 210.97383006 138.0625 204.3125 C148.24138698 200.69303201 159.74485751 195.02470119 168 188 C168 187.34 168 186.68 168 186 C168.99 186 169.98 186 171 186 C172.74402525 184.17409683 172.74402525 184.17409683 174.375 181.8125 C176.40913748 179.06296672 178.36241382 176.51018141 180.875 174.1875 C182.97847578 172.02215729 183.6718922 170.95297024 184 168 C184.66 168 185.32 168 186 168 C188.96235695 164.36676311 188.96235695 164.36676311 190 160 C190.66 160 191.32 160 192 160 C193.68373561 156.00695111 195.34876555 152.0065989 197 148 C197.29519531 147.2884375 197.59039062 146.576875 197.89453125 145.84375 C202.26947497 134.80111131 203.5435483 124.04921425 203.4375 112.25 C203.43479095 111.54411743 203.43208191 110.83823486 203.42929077 110.11096191 C203.36799393 99.58938067 202.73512015 89.94004288 199 80 C198.42185547 78.40478516 198.42185547 78.40478516 197.83203125 76.77734375 C195.18662088 70.00543564 192.12458142 63.00656256 188 57 C187.01 56.67 186.02 56.34 185 56 C184.566875 54.63875 184.566875 54.63875 184.125 53.25 C181.96473346 47.00923 176.00034024 43.19349915 171.14453125 38.93359375 C169.40484355 37.36502287 167.78624242 35.77013509 166.1875 34.0625 C164.02585331 32.02437597 162.91156338 31.32350704 160 31 C160 30.34 160 29.68 160 29 C156.19572508 26.7986134 156.19572508 26.7986134 152 26 C152 25.34 152 24.68 152 24 C151.21625 23.7525 150.4325 23.505 149.625 23.25 C146.81831287 22.28217685 144.16279833 21.22286357 141.4375 20.0625 C121.99499361 12.20338731 100.14253531 12.08666773 80 17 Z " fill="#FEFEFD" transform="translate(0,0)" /><path d="M0 0 C69.96 0 139.92 0 212 0 C212 4.62 212 9.24 212 14 C142.04 14 72.08 14 0 14 C0 9.38 0 4.76 0 0 Z " fill="#343434" transform="translate(0,223)" /><path d="M0 0 C5.57447566 3.33525711 10.92716721 9.11643899 13.1875 15.26171875 C15.00134779 24.54149359 14.46187212 33.34335586 9.625 41.5 C9.2125 42.386875 8.8 43.27375 8.375 44.1875 C5.13958772 48.46286622 0.71040321 51.8048656 -4.375 53.5 C-12.045439 54.30092937 -18.94747728 52.78501515 -25.375 48.5 C-25.375 47.84 -25.375 47.18 -25.375 46.5 C-26.035 46.5 -26.695 46.5 -27.375 46.5 C-33.73324682 38.70602003 -35.23712028 29.33119619 -34.375 19.5 C-33.36183837 14.34976172 -31.6105674 10.64557073 -28.375 6.5 C-27.715 6.5 -27.055 6.5 -26.375 6.5 C-26.0965625 5.63375 -26.0965625 5.63375 -25.8125 4.75 C-20.52046885 -3.53317919 -8.28439435 -3.61735738 0 0 Z " fill="#FCFCFA" transform="translate(81.375,57.5)" /><path d="M0 0 C0.86625 0.598125 1.7325 1.19625 2.625 1.8125 C3.49898437 2.28816406 3.49898437 2.28816406 4.390625 2.7734375 C10.67866195 6.49870309 12.20516074 12.04793872 14.20703125 18.765625 C15.88284699 26.9724236 15.10581584 34.71457048 10.625 41.8125 C6.67211504 47.42659737 2.34268592 51.85671802 -4.375 53.8125 C-12.17744625 55.15774935 -17.72497955 52.77421431 -24.375 48.8125 C-24.375 48.1525 -24.375 47.4925 -24.375 46.8125 C-25.035 46.8125 -25.695 46.8125 -26.375 46.8125 C-27.59375 45.2734375 -27.59375 45.2734375 -28.875 43.1875 C-29.50921875 42.17816406 -29.50921875 42.17816406 -30.15625 41.1484375 C-32.96981219 35.75577664 -33.62885928 31.18782511 -33.5625 25.125 C-33.55283203 23.17013672 -33.55283203 23.17013672 -33.54296875 21.17578125 C-33.375 17.8125 -33.375 17.8125 -32.375 14.8125 C-31.715 14.8125 -31.055 14.8125 -30.375 14.8125 C-30.313125 14.090625 -30.25125 13.36875 -30.1875 12.625 C-29.11061783 8.89733095 -27.22725789 7.40546172 -24.375 4.8125 C-23.50875 3.905 -22.6425 2.9975 -21.75 2.0625 C-16.35723208 -3.04643803 -6.66356652 -2.34458822 0 0 Z " fill="#FDFCFA" transform="translate(150.375,57.1875)" /><path d="M0 0 C2.48284864 1.41107667 4.65225635 3.01398092 6.73828125 4.9609375 C10.33908209 7.07905564 13.8214169 7.03475699 17.86328125 6.2109375 C21.1182676 4.51268375 23.95136074 2.43335464 26.86328125 0.2109375 C31.153887 -1.93436537 36.23061467 -1.49164701 40.86328125 -0.7890625 C43.85575269 0.81118961 46.49916 2.67452079 49.26953125 4.62890625 C52.56778913 6.64064487 54.90192174 7.15392278 58.72265625 6.8515625 C62.79824739 5.63186004 65.7007001 2.94880751 68.86328125 0.2109375 C73.02243664 -1.86864019 78.32239689 -1.12652066 82.86328125 -0.7890625 C86.55078125 0.5234375 86.55078125 0.5234375 88.86328125 2.2109375 C89.35828125 3.6959375 89.35828125 3.6959375 89.86328125 5.2109375 C90.52328125 5.2109375 91.18328125 5.2109375 91.86328125 5.2109375 C91.53328125 7.1909375 91.20328125 9.1709375 90.86328125 11.2109375 C85.33448544 11.58790085 85.33448544 11.58790085 82.98828125 9.7109375 C80.37016018 7.86285204 78.20127984 7.61589922 75.0234375 7.7109375 C71.57102919 8.51004828 69.2752601 10.52682583 66.625 12.80078125 C62.49918386 16.10326379 57.33229997 15.7109375 52.28515625 15.7109375 C47.48490476 15.00953089 44.85489335 12.7584682 41.1484375 9.78125 C37.47195765 7.25484846 35.2011755 7.4630247 30.86328125 8.2109375 C28.52066517 9.59020523 28.52066517 9.59020523 26.86328125 11.2109375 C26.20328125 11.2109375 25.54328125 11.2109375 24.86328125 11.2109375 C24.53328125 12.2009375 24.20328125 13.1909375 23.86328125 14.2109375 C18.07428998 16.50519211 10.14161251 16.0394216 4.42578125 13.9609375 C1.86328125 12.2109375 1.86328125 12.2109375 -0.51171875 10.0234375 C-4.06836755 7.56765619 -6.92813013 7.4566487 -11.13671875 8.2109375 C-12.81701869 9.18785607 -14.48600479 10.18481801 -16.13671875 11.2109375 C-20.53671875 10.8109375 -20.53671875 10.8109375 -22.13671875 9.2109375 C-22.57421875 6.8984375 -22.57421875 6.8984375 -22.13671875 4.2109375 C-15.83167753 -0.83309548 -7.82142013 -2.88834893 0 0 Z " fill="#696865" transform="translate(71.13671875,152.7890625)" /><path d="M0 0 C3.5426931 0.02820616 4.63090304 0.2380644 7.75 2.1875 C11.07530877 5.72064057 11.08074386 8.35911263 11.04296875 13.05078125 C10.61344199 16.3667278 9.14075646 18.06237627 6.75 20.3125 C3.27736727 22.04881636 -0.46193013 21.91440402 -4.25 21.3125 C-7.00569447 19.13090855 -8.68588747 17.44072506 -10.25 14.3125 C-10.75698467 9.15815588 -10.75698467 9.15815588 -10.25 6.3125 C-7.8125 3.375 -7.8125 3.375 -5.25 1.3125 C-3.69014791 -0.24735209 -2.16093902 0.06797656 0 0 Z " fill="#686868" transform="translate(77.25,80.6875)" /><path d="M0 0 C5.0391029 0.02195688 8.10049412 0.24735223 12.0625 3.5625 C14.37598256 7.66706584 15.10486223 10.4070603 14 15 C12.07114735 18.42215793 10.66857474 20.46291808 6.83984375 21.6953125 C3.03522038 22.29236525 0.6401456 22.27240238 -2.9375 20.75 C-5.41421896 18.64854149 -6.90910229 17.05259553 -7.1953125 13.73828125 C-7.17210938 12.93777344 -7.14890625 12.13726562 -7.125 11.3125 C-7.10695313 10.50425781 -7.08890625 9.69601563 -7.0703125 8.86328125 C-7.04710938 8.24839844 -7.02390625 7.63351563 -7 7 C-6.67 7.66 -6.34 8.32 -6 9 C-4.10466658 9.46523063 -4.10466658 9.46523063 -1.9375 9.625 C-0.638125 9.74875 0.66125 9.8725 2 10 C0.92598892 7.08482708 0.22189824 5.22189824 -2 3 C-1.34 2.01 -0.68 1.02 0 0 Z " fill="#696969" transform="translate(131,64)" /><path d="M0 0 C8.58 0 17.16 0 26 0 C26 1.98 26 3.96 26 6 C24.06280622 6.05406122 22.12518079 6.09282025 20.1875 6.125 C19.10855469 6.14820313 18.02960937 6.17140625 16.91796875 6.1953125 C14 6 14 6 11 4 C8.84725052 4.30840599 8.84725052 4.30840599 7 5 C6.67 6.65 6.34 8.3 6 10 C9.42278017 10.16298953 11.91284197 10.02905268 15.1875 8.9375 C18 8 18 8 21 9 C21.99 8.67 22.98 8.34 24 8 C26.06587115 8.08573227 28.12946525 8.23833535 30.1875 8.4375 C31.27417969 8.53933594 32.36085937 8.64117187 33.48046875 8.74609375 C34.31191406 8.82988281 35.14335938 8.91367188 36 9 C35.34 10.65 34.68 12.3 34 14 C22.78 14 11.56 14 0 14 C0 9.38 0 4.76 0 0 Z " fill="#303030" transform="translate(0,223)" /><path d="M0 0 C0.33 1.32 0.66 2.64 1 4 C-0.32 4 -1.64 4 -3 4 C-3 4.99 -3 5.98 -3 7 C-3.99 7.66 -4.98 8.32 -6 9 C-6.33 9.99 -6.66 10.98 -7 12 C-5.02 11.67 -3.04 11.34 -1 11 C-0.67 11.99 -0.34 12.98 0 14 C-1.051875 14.02126953 -1.051875 14.02126953 -2.125 14.04296875 C-9.7254372 14.42505595 -15.27292736 16.0336585 -20.58203125 21.68359375 C-21.04996094 22.11800781 -21.51789062 22.55242187 -22 23 C-24.1875 22.6875 -24.1875 22.6875 -26 22 C-26 20.35 -26 18.7 -26 17 C-24.68 17 -23.36 17 -22 17 C-22 16.01 -22 15.02 -22 14 C-21.01 14 -20.02 14 -19 14 C-18.319375 12.7934375 -18.319375 12.7934375 -17.625 11.5625 C-17.08875 10.716875 -16.5525 9.87125 -16 9 C-14.33985384 8.63557767 -12.67293936 8.30027117 -11 8 C-10.31513275 6.67592331 -9.65129797 5.34090759 -9 4 C-3.77777778 0 -3.77777778 0 0 0 Z " fill="#FAD07C" transform="translate(75,42)" /><path d="M0 0 C2.5 0.8125 2.5 0.8125 5.5 2.8125 C5.83 2.1525 6.16 1.4925 6.5 0.8125 C6.5 1.4725 6.5 2.1325 6.5 2.8125 C7.94632813 2.68681641 7.94632813 2.68681641 9.421875 2.55859375 C10.68515625 2.45675781 11.9484375 2.35492188 13.25 2.25 C14.50296875 2.14558594 15.7559375 2.04117188 17.046875 1.93359375 C19.89452364 1.83373277 21.84286067 1.90665705 24.5 2.8125 C24.5 2.1525 24.5 1.4925 24.5 0.8125 C25.16 0.8125 25.82 0.8125 26.5 0.8125 C27.16 1.4725 27.82 2.1325 28.5 2.8125 C29.0775 2.668125 29.655 2.52375 30.25 2.375 C33.21228559 1.6344286 35.53991752 2.20702858 38.5 2.8125 C38.5 3.8025 38.5 4.7925 38.5 5.8125 C29.66931686 6.4715062 21.30408103 7.026856 12.5 5.8125 C11.51 6.1425 10.52 6.4725 9.5 6.8125 C8.51 6.4825 7.52 6.1525 6.5 5.8125 C5.3553125 6.2765625 5.3553125 6.2765625 4.1875 6.75 C1.12243489 7.96176993 -1.23368961 7.96442141 -4.5 7.8125 C-5.1875 5.5 -5.1875 5.5 -5.5 2.8125 C-3.88800135 0.12583559 -3.13911476 -0.23543361 0 0 Z " fill="#BEBEBE" transform="translate(10.5,226.1875)" /><path d="M0 0 C0.66 0 1.32 0 2 0 C0.63055898 2.94956528 -0.87830409 5.52468811 -3 8 C-3.66 8 -4.32 8 -5 8 C-5 8.66 -5 9.32 -5 10 C-5.99 10 -6.98 10 -8 10 C-8 11.32 -8 12.64 -8 14 C-9.65 14.33 -11.3 14.66 -13 15 C-13.33 15.99 -13.66 16.98 -14 18 C-14.845625 18.556875 -15.69125 19.11375 -16.5625 19.6875 C-19.16011507 21.68362046 -19.16011507 21.68362046 -19.328125 24.03515625 C-19.31407747 26.02639403 -19.16536741 28.01559106 -19 30 C-21.31 30.33 -23.62 30.66 -26 31 C-24.68 30.67 -23.36 30.34 -22 30 C-21.67 28.02 -21.34 26.04 -21 24 C-21.66 24 -22.32 24 -23 24 C-23.66 22.68 -24.32 21.36 -25 20 C-23.68 20 -22.36 20 -21 20 C-20.67 18.68 -20.34 17.36 -20 16 C-18.68 15.67 -17.36 15.34 -16 15 C-16 14.01 -16 13.02 -16 12 C-15.21625 11.731875 -14.4325 11.46375 -13.625 11.1875 C-10.71885077 10.15185568 -10.71885077 10.15185568 -9 7 C-8.34 7 -7.68 7 -7 7 C-6.67 6.01 -6.34 5.02 -6 4 C-5.34 4 -4.68 4 -4 4 C-4 3.34 -4 2.68 -4 2 C-2.68 2 -1.36 2 0 2 C0 1.34 0 0.68 0 0 Z " fill="#F9D07E" transform="translate(184,134)" /><path d="M0 0 C0.66 0 1.32 0 2 0 C3.32 2.31 4.64 4.62 6 7 C5.01 7.495 5.01 7.495 4 8 C4 7.01 4 6.02 4 5 C0.10045751 6.1265345 -2.2177573 7.08526956 -5 10 C-5.99 10 -6.98 10 -8 10 C-8 10.99 -8 11.98 -8 13 C-9.79036458 13.94401042 -11.58072917 14.88802083 -13.37109375 15.83203125 C-15.32267987 16.99019799 -15.32267987 16.99019799 -16 20 C-16.33 20.99 -16.66 21.98 -17 23 C-17.061875 22.21625 -17.12375 21.4325 -17.1875 20.625 C-17.455625 19.75875 -17.72375 18.8925 -18 18 C-20.39068734 16.89363605 -20.39068734 16.89363605 -23 16 C-24.8125 13.875 -24.8125 13.875 -26 12 C-25.360625 12.185625 -24.72125 12.37125 -24.0625 12.5625 C-23.0415625 12.7790625 -23.0415625 12.7790625 -22 13 C-21.67 12.67 -21.34 12.34 -21 12 C-18.525 12.99 -18.525 12.99 -16 14 C-16 13.34 -16 12.68 -16 12 C-14.02 11.34 -12.04 10.68 -10 10 C-10 8.68 -10 7.36 -10 6 C-9.0409375 5.566875 -9.0409375 5.566875 -8.0625 5.125 C-5.84793921 4.17176549 -5.84793921 4.17176549 -5 2 C-2.4375 1.375 -2.4375 1.375 0 1 C0 0.67 0 0.34 0 0 Z " fill="#FAD282" transform="translate(178,46)" /><path d="M0 0 C0.33 0.99 0.66 1.98 1 3 C1.99 2.67 2.98 2.34 4 2 C4 2.99 4 3.98 4 5 C3.34 5 2.68 5 2 5 C2 18.2 2 31.4 2 45 C-4.66922568 31.66154864 -2.72205891 14.1935929 0 0 Z " fill="#FBCD71" transform="translate(10,91)" /><path d="M0 0 C1.32 0.33 2.64 0.66 4 1 C4 1.66 4 2.32 4 3 C3.01 3.33 2.02 3.66 1 4 C0.67 4.66 0.34 5.32 0 6 C-0.66 6 -1.32 6 -2 6 C-2.33 6.99 -2.66 7.98 -3 9 C-3.66 9 -4.32 9 -5 9 C-5 9.66 -5 10.32 -5 11 C-5.99 11 -6.98 11 -8 11 C-8.0825 11.5775 -8.165 12.155 -8.25 12.75 C-9.225982 15.67794601 -10.63511223 17.05244537 -13 19 C-13.99 19 -14.98 19 -16 19 C-16 19.66 -16 20.32 -16 21 C-18.65228812 22.07525194 -21.28368454 23.09456151 -24 24 C-24 22.35 -24 20.7 -24 19 C-22.35 19 -20.7 19 -19 19 C-18.9175 18.38125 -18.835 17.7625 -18.75 17.125 C-18 15 -18 15 -16 13.875 C-15.34 13.58625 -14.68 13.2975 -14 13 C-13.67 12.34 -13.34 11.68 -13 11 C-12.01 11 -11.02 11 -10 11 C-9.95875 10.4225 -9.9175 9.845 -9.875 9.25 C-8.53737351 5.81038902 -6.14042375 4.7586373 -3 3 C-2.01 3 -1.02 3 0 3 C0 2.01 0 1.02 0 0 Z " fill="#F9D07F" transform="translate(128,181)" /><path d="M0 0 C0.66 0 1.32 0 2 0 C2 1.32 2 2.64 2 4 C2.66 4.33 3.32 4.66 4 5 C3.01 6.485 3.01 6.485 2 8 C2.495 8.4125 2.99 8.825 3.5 9.25 C5 11 5 11 5 15 C3.741875 14.835 2.48375 14.67 1.1875 14.5 C-2.54154041 14.01094552 -5.35890741 13.78630247 -9 15 C-7.79620186 9.41875407 -6.35036733 6.91533059 -2 3 C-1.34 2.01 -0.68 1.02 0 0 Z " fill="#F7F6F1" transform="translate(128,59)" /><path d="M0 0 C-1.98 0.99 -1.98 0.99 -4 2 C-4 2.99 -4 3.98 -4 5 C-5.66279327 6.0064275 -7.32983484 7.00585407 -9 8 C-10.43637698 9.95163118 -10.43637698 9.95163118 -11 12 C-10.67 12.66 -10.34 13.32 -10 14 C-14.32059823 15.09845718 -18.61667943 16.17812739 -23 17 C-22.67 16.34 -22.34 15.68 -22 15 C-21.34 15 -20.68 15 -20 15 C-20 14.01 -20 13.02 -20 12 C-19.34 12 -18.68 12 -18 12 C-17.67 11.01 -17.34 10.02 -17 9 C-16.34 9 -15.68 9 -15 9 C-15 8.34 -15 7.68 -15 7 C-14.01 7 -13.02 7 -12 7 C-12 6.01 -12 5.02 -12 4 C-11.01 3.67 -10.02 3.34 -9 3 C-7.97980427 2.0206121 -6.97850195 1.02104551 -6 0 C-3.50907189 -1.24546405 -2.58919267 -0.7767578 0 0 Z " fill="#F9CF7F" transform="translate(76,137)" /><path d="M0 0 C0.33 0 0.66 0 1 0 C1 1.98 1 3.96 1 6 C1.66 6 2.32 6 3 6 C3.75 7.625 3.75 7.625 4 10 C1.26048193 15.59814562 -2.72013368 18.10376265 -8 21 C-8.103125 20.21625 -8.20625 19.4325 -8.3125 18.625 C-8.77595022 15.66954819 -8.77595022 15.66954819 -12 14 C-10.741875 13.7525 -9.48375 13.505 -8.1875 13.25 C-5.551055 12.56992762 -4.17233065 12.14453538 -2.0625 10.375 C-0.52386701 6.93570273 -0.31265408 3.75184896 0 0 Z " fill="#F9F8F2" transform="translate(88,88)" /><path d="M0 0 C1.35432675 1.31200404 2.68733482 2.64631404 4 4 C4 4.33 4 4.66 4 5 C2.02 5 0.04 5 -2 5 C-2 5.66 -2 6.32 -2 7 C-2.928125 7.12375 -2.928125 7.12375 -3.875 7.25 C-6.18346804 7.78810733 -6.18346804 7.78810733 -7 10 C-8 12 -8 12 -10.125 12.75 C-11.053125 12.87375 -11.053125 12.87375 -12 13 C-12 13.66 -12 14.32 -12 15 C-12.99 15 -13.98 15 -15 15 C-15.3125 12.6875 -15.3125 12.6875 -15 10 C-12.13896577 7.75756777 -10.65923696 7 -7 7 C-7 6.34 -7 5.68 -7 5 C-5.46875 3.7109375 -5.46875 3.7109375 -3.5 2.375 C-2.8503125 1.92898437 -2.200625 1.48296875 -1.53125 1.0234375 C-0.77328125 0.51683594 -0.77328125 0.51683594 0 0 Z " fill="#F9D282" transform="translate(119,97)" /><path d="M0 0 C2.00720923 0.28674418 4.0085944 0.61866701 6 1 C6.33 2.65 6.66 4.3 7 6 C2.25 10 2.25 10 0 10 C0 9.34 0 8.68 0 8 C-0.99 7.67 -1.98 7.34 -3 7 C-2.34 7 -1.68 7 -1 7 C-1.020625 6.030625 -1.04125 5.06125 -1.0625 4.0625 C-1 1 -1 1 0 0 Z " fill="#6E6E6F" transform="translate(80,92)" /><path d="M0 0 C1.4800841 0.11362262 2.95910074 0.24122908 4.4375 0.375 C5.26121094 0.44460937 6.08492187 0.51421875 6.93359375 0.5859375 C7.95646484 0.79089844 7.95646484 0.79089844 9 1 C9.33 1.66 9.66 2.32 10 3 C8.68 3 7.36 3 6 3 C6.12375 4.11375 6.12375 4.11375 6.25 5.25 C5.92894816 8.78157027 4.64734383 9.76630364 2 12 C1.71125 10.88625 1.4225 9.7725 1.125 8.625 C0.30758671 4.99708908 0.30758671 4.99708908 -2 3 C-1.34 2.01 -0.68 1.02 0 0 Z " fill="#6F6F6F" transform="translate(131,64)" /><path d="M0 0 C0.99 0.66 1.98 1.32 3 2 C3.66 1.67 4.32 1.34 5 1 C5 1.66 5 2.32 5 3 C7.97 3.495 7.97 3.495 11 4 C11 4.99 11 5.98 11 7 C6.38 7 1.76 7 -3 7 C-2.67 5.68 -2.34 4.36 -2 3 C-1.34 3 -0.68 3 0 3 C0 2.01 0 1.02 0 0 Z " fill="#575757" transform="translate(160,224)" /><path d="M0 0 C0.66 0.33 1.32 0.66 2 1 C4.09821215 0.60061233 4.09821215 0.60061233 6 0 C7 7.625 7 7.625 7 11 C6.34 10.34 5.68 9.68 5 9 C4.01 9.495 4.01 9.495 3 10 C0.875 9.0625 0.875 9.0625 -1 8 C-0.67 5.36 -0.34 2.72 0 0 Z " fill="#F2F0E9" transform="translate(118,72)" /><path d="M0 0 C0.66 0 1.32 0 2 0 C2.66 0.66 3.32 1.32 4 2 C4.5775 1.855625 5.155 1.71125 5.75 1.5625 C8.71228559 0.8219286 11.03991752 1.39452858 14 2 C14 2.99 14 3.98 14 5 C11.54101345 5.08076963 9.08466258 5.14037143 6.625 5.1875 C5.57699219 5.22520508 5.57699219 5.22520508 4.5078125 5.26367188 C2.4765625 5.29296875 2.4765625 5.29296875 -1 5 C-1.66 4.01 -2.32 3.02 -3 2 C-2.01 2 -1.02 2 0 2 C0 1.34 0 0.68 0 0 Z " fill="#BFBFBF" transform="translate(35,227)" /><path d="M0 0 C5.23322375 0.0687283 10.46563701 0.15661994 15.69824219 0.26245117 C17.47907542 0.2957484 19.26001541 0.32376531 21.04101562 0.34643555 C23.59811999 0.37989432 26.15424176 0.43220301 28.7109375 0.48828125 C29.50994476 0.49467117 30.30895203 0.5010611 31.13217163 0.50764465 C33.37646484 0.56762695 33.37646484 0.56762695 37 1 C37.66 1.99 38.32 2.98 39 4 C38.40058594 3.9278125 37.80117187 3.855625 37.18359375 3.78125 C31.8298727 3.23293149 26.60322535 2.97111942 21.22265625 3.0390625 C20.20051025 3.05130859 19.17836426 3.06355469 18.12524414 3.07617188 C16.05777413 3.10847357 13.990463 3.15384163 11.92358398 3.21289062 C10.95880127 3.22771484 9.99401855 3.24253906 9 3.2578125 C8.13375 3.2798877 7.2675 3.30196289 6.375 3.32470703 C3.5063431 2.93250785 2.14801598 1.88883697 0 0 Z " fill="#FEF7F5" transform="translate(88,12)" /><path d="M0 0 C0.33 0 0.66 0 1 0 C1.04898437 0.90363281 1.09796875 1.80726562 1.1484375 2.73828125 C1.22320312 3.91777344 1.29796875 5.09726563 1.375 6.3125 C1.44460938 7.48425781 1.51421875 8.65601562 1.5859375 9.86328125 C1.78613747 13.15699887 1.78613747 13.15699887 4 16 C4.14245897 18.76655324 4.18769445 21.42653306 4.125 24.1875 C4.11597656 24.93708984 4.10695313 25.68667969 4.09765625 26.45898438 C4.07412578 28.30612654 4.03825561 30.15310412 4 32 C-1.28083126 22.50337908 -0.24058308 10.53219275 0 0 Z " fill="#FBD48A" transform="translate(8,104)" /><path d="M0 0 C1.98 0 3.96 0 6 0 C6.33 1.65 6.66 3.3 7 5 C9.31 5 11.62 5 14 5 C10.79619983 7.13586678 9.98060033 7.23132175 6.3125 7.125 C5.50425781 7.10695313 4.69601563 7.08890625 3.86328125 7.0703125 C2.94095703 7.03550781 2.94095703 7.03550781 2 7 C1.67 6.01 1.34 5.02 1 4 C0.01 3.67 -0.98 3.34 -2 3 C-1.34 2.34 -0.68 1.68 0 1 C0 0.67 0 0.34 0 0 Z " fill="#FBF7EB" transform="translate(66,104)" /><path d="M0 0 C4 4.5 4 4.5 4 9 C1.36 8.67 -1.28 8.34 -4 8 C-4.25 5.6875 -4.25 5.6875 -4 3 C-2 1.1875 -2 1.1875 0 0 Z " fill="#727170" transform="translate(129,65)" /><path d="M0 0 C2.77508472 2.39666407 3.89984537 4.50985428 5 8 C5.13710218 10.64607209 5.19062972 13.17469013 5.125 15.8125 C5.11597656 16.50537109 5.10695313 17.19824219 5.09765625 17.91210938 C5.07426157 19.60822395 5.03839641 21.30415871 5 23 C4.67 22.34 4.34 21.68 4 21 C3.34 21 2.68 21 2 21 C2 18.36 2 15.72 2 13 C2.66 13 3.32 13 4 13 C3.34 11.02 2.68 9.04 2 7 C1.67 7 1.34 7 1 7 C0.67 4.69 0.34 2.38 0 0 Z " fill="#FCF6E7" transform="translate(90,67)" /><path d="M0 0 C1.4540625 0.0309375 1.4540625 0.0309375 2.9375 0.0625 C3.31968767 1.71864657 3.65145102 3.38707024 3.9375 5.0625 C2.9375 6.0625 2.9375 6.0625 -0.125 6.125 C-1.094375 6.104375 -2.06375 6.08375 -3.0625 6.0625 C-3.44468767 4.40635343 -3.77645102 2.73792976 -4.0625 1.0625 C-3.0625 0.0625 -3.0625 0.0625 0 0 Z " fill="#919191" transform="translate(9.0625,227.9375)" /><path d="M0 0 C0.33 0.66 0.66 1.32 1 2 C2.94603274 2.59070014 2.94603274 2.59070014 5 3 C5.66 3.33 6.32 3.66 7 4 C6.67 4.66 6.34 5.32 6 6 C6.33 6.66 6.66 7.32 7 8 C6.01 8.99 5.02 9.98 4 11 C2.68 10.34 1.36 9.68 0 9 C0 6.03 0 3.06 0 0 Z " fill="#636364" transform="translate(124,71)" /><path d="M0 0 C0.763125 0.20625 1.52625 0.4125 2.3125 0.625 C2.3125 1.285 2.3125 1.945 2.3125 2.625 C1.3225 2.625 0.3325 2.625 -0.6875 2.625 C-1.0175 3.615 -1.3475 4.605 -1.6875 5.625 C-3.0075 5.295 -4.3275 4.965 -5.6875 4.625 C-5.3575 5.615 -5.0275 6.605 -4.6875 7.625 C-7.6575 7.13 -7.6575 7.13 -10.6875 6.625 C-3.73006466 -0.52047414 -3.73006466 -0.52047414 0 0 Z " fill="#F3C468" transform="translate(146.6875,160.375)" /><path d="M0 0 C0.66 0.99 1.32 1.98 2 3 C1.34 3 0.68 3 0 3 C-0.26941406 3.57234375 -0.53882813 4.1446875 -0.81640625 4.734375 C-2.03385639 7.0648076 -3.39091733 9.12492458 -4.9375 11.25 C-5.44152344 11.95640625 -5.94554687 12.6628125 -6.46484375 13.390625 C-7.22474609 14.18726563 -7.22474609 14.18726563 -8 15 C-8.99 15 -9.98 15 -11 15 C-10.34 13.68 -9.68 12.36 -9 11 C-8.34 11 -7.68 11 -7 11 C-6.71125 10.4225 -6.4225 9.845 -6.125 9.25 C-5.08333333 7.16666667 -4.04166667 5.08333333 -3 3 C-2.34 3 -1.68 3 -1 3 C-0.67 2.01 -0.34 1.02 0 0 Z " fill="#FCF2D7" transform="translate(187,165)" /><path d="M0 0 C-1.0197307 3.77300358 -1.65872662 4.80206144 -5.125 6.8125 C-6.07375 7.204375 -7.0225 7.59625 -8 8 C-8.1875 5.125 -8.1875 5.125 -8 2 C-4.77208445 -0.1519437 -3.71599191 -0.20086443 0 0 Z " fill="#F9CF7D" transform="translate(23,88)" /><path d="M0 0 C2.97 0 5.94 0 9 0 C4.04087193 5.13623978 4.04087193 5.13623978 1 7 C0.01 6.67 -0.98 6.34 -2 6 C-2 5.01 -2 4.02 -2 3 C-1.01 2.67 -0.02 2.34 1 2 C0.67 1.34 0.34 0.68 0 0 Z " fill="#F0C666" transform="translate(131,153)" /><path d="M0 0 C0.66 0.66 1.32 1.32 2 2 C0.824375 2.0928125 0.824375 2.0928125 -0.375 2.1875 C-1.24125 2.455625 -2.1075 2.72375 -3 3 C-4.37466625 5.47636012 -4.37466625 5.47636012 -5 8 C-5.33 8 -5.66 8 -6 8 C-6.33 6.35 -6.66 4.7 -7 3 C-8.65 3.33 -10.3 3.66 -12 4 C-8.41606395 -0.7785814 -5.59971929 -0.54190832 0 0 Z " fill="#F3C66C" transform="translate(110,160)" /><path d="M0 0 C0.66 0.33 1.32 0.66 2 1 C2 2.98 2 4.96 2 7 C0.35 7.66 -1.3 8.32 -3 9 C-3 8.34 -3 7.68 -3 7 C-3.99 6.67 -4.98 6.34 -6 6 C-4 4 -2 2 0 0 Z " fill="#FBD07C" transform="translate(158,101)" /><path d="M0 0 C0.33 0 0.66 0 1 0 C1 5.28 1 10.56 1 16 C1.66 16 2.32 16 3 16 C3.33 17.65 3.66 19.3 4 21 C3.34 21 2.68 21 2 21 C1.34 21.66 0.68 22.32 0 23 C0 15.41 0 7.82 0 0 Z " fill="#FDEED6" transform="translate(203,104)" /><path d="M0 0 C6.27 0 12.54 0 19 0 C15.32740617 2.44839588 12.45351799 4 8 4 C8 3.01 8 2.02 8 1 C5.36 1 2.72 1 0 1 C0 0.67 0 0.34 0 0 Z " fill="#F6D37D" transform="translate(96,14)" /><path d="M0 0 C0.99 0.33 1.98 0.66 3 1 C3 3.97 3 6.94 3 10 C2.01 9.67 1.02 9.34 0 9 C0.33 8.34 0.66 7.68 1 7 C-0.32 6.34 -1.64 5.68 -3 5 C-3 3.68 -3 2.36 -3 1 C-1 2 -1 2 0 3 C0 2.01 0 1.02 0 0 Z " fill="#616161" transform="translate(85,86)" /><path d="M0 0 C1.65 0 3.3 0 5 0 C5.06058594 0.69867188 5.12117187 1.39734375 5.18359375 2.1171875 C5.26738281 3.02726563 5.35117188 3.93734375 5.4375 4.875 C5.51871094 5.77992188 5.59992187 6.68484375 5.68359375 7.6171875 C5.86989285 10.01110861 5.86989285 10.01110861 7 12 C6.01 11.67 5.02 11.34 4 11 C3.25881795 8.68925595 2.59793673 6.35188447 2 4 C1.37530495 2.64649406 0.7283669 1.30065517 0 0 Z " fill="#2D2D2D" transform="translate(0,223)" /><path d="M0 0 C0.66 0.33 1.32 0.66 2 1 C4.00800456 0.71887936 6.01014051 0.38932033 8 0 C7.67 0.66 7.34 1.32 7 2 C7.66 2.66 8.32 3.32 9 4 C4.28400182 4.92470553 1.32734391 5.22923777 -3 3 C-2.01 2.01 -1.02 1.02 0 0 Z " fill="#6D6969" transform="translate(77,163)" /><path d="M0 0 C0.33 0.66 0.66 1.32 1 2 C-7.42857143 4.42857143 -7.42857143 4.42857143 -12 3 C-8.2391768 -0.7608232 -5.0273023 -0.25136512 0 0 Z " fill="#F3C66D" transform="translate(68,160)" /><path d="M0 0 C0.66 0.33 1.32 0.66 2 1 C2 4 2 4 1 6 C-1.31 6 -3.62 6 -6 6 C-5 3 -5 3 -2.5625 1.25 C-1.716875 0.8375 -0.87125 0.425 0 0 Z " fill="#847F77" transform="translate(55,153)" /><path d="M0 0 C2.34914492 2.34914492 2.73140357 3.95679446 3.625 7.125 C3.88539063 8.03507812 4.14578125 8.94515625 4.4140625 9.8828125 C4.70410156 10.93082031 4.70410156 10.93082031 5 12 C4.34 12 3.68 12 3 12 C2.34 11.34 1.68 10.68 1 10 C0.34 10.66 -0.32 11.32 -1 12 C-1.14285714 3.42857143 -1.14285714 3.42857143 0 0 Z " fill="#F7CE7B" transform="translate(195,72)" /><path d="M0 0 C0.33 0 0.66 0 1 0 C1 1.98 1 3.96 1 6 C1.66 6 2.32 6 3 6 C3.33 7.32 3.66 8.64 4 10 C1.69 10.66 -0.62 11.32 -3 12 C-2.690625 11.505 -2.38125 11.01 -2.0625 10.5 C-0.58355618 7.02013219 -0.37597149 3.75971491 0 0 Z " fill="#E9EAE7" transform="translate(88,88)" /><path d="M0 0 C1.32 0 2.64 0 4 0 C4 1.65 4 3.3 4 5 C2.68 5.33 1.36 5.66 0 6 C-0.38218767 4.34385343 -0.71395102 2.67542976 -1 1 C-0.67 0.67 -0.34 0.34 0 0 Z " fill="#F0F0F0" transform="translate(80,92)" /><path d="M0 0 C0.66 0 1.32 0 2 0 C2.33 0.66 2.66 1.32 3 2 C3.99 2.33 4.98 2.66 6 3 C6 3.66 6 4.32 6 5 C2.625 5.1875 2.625 5.1875 -1 5 C-1.66 4.01 -2.32 3.02 -3 2 C-2.01 2 -1.02 2 0 2 C0 1.34 0 0.68 0 0 Z " fill="#AFAFAF" transform="translate(35,227)" /><path d="M0 0 C1.65 1.32 3.3 2.64 5 4 C4.01 4 3.02 4 2 4 C1.67 4.66 1.34 5.32 1 6 C-0.64363134 6.72159424 -2.31050386 7.39351421 -4 8 C-3.67 6.35 -3.34 4.7 -3 3 C-2.01 2.67 -1.02 2.34 0 2 C0 1.34 0 0.68 0 0 Z " fill="#726A6A" transform="translate(118,156)" /><path d="M0 0 C-0.6875 2.4375 -0.6875 2.4375 -2 5 C-4.375 5.75 -4.375 5.75 -7 6 C-8.33542939 6.32483418 -9.66961551 6.6550855 -11 7 C-4.36842105 0 -4.36842105 0 0 0 Z " fill="#786F6B" transform="translate(144,152)" /><path d="M0 0 C3.63 1.65 7.26 3.3 11 5 C7.7169902 6.6415049 4.57454967 5.51888624 1 5 C0.67 3.35 0.34 1.7 0 0 Z " fill="#FCF6E9" transform="translate(53,194)" /><path d="M0 0 C0.391875 0.66 0.78375 1.32 1.1875 2 C2.85416667 4.29166667 2.85416667 4.29166667 5.6875 4.25 C6.8321875 4.12625 6.8321875 4.12625 8 4 C8 5.32 8 6.64 8 8 C5.6875 8.25 5.6875 8.25 3 8 C1.1875 6.25 1.1875 6.25 0 4 C0 2.68 0 1.36 0 0 Z " fill="#EDC66B" transform="translate(48,159)" /><path d="M0 0 C0.33 0.66 0.66 1.32 1 2 C0.67 2.66 0.34 3.32 0 4 C0.66 4 1.32 4 2 4 C2 4.66 2 5.32 2 6 C0.125 7.0625 0.125 7.0625 -2 8 C-2.66 7.67 -3.32 7.34 -4 7 C-4 6.01 -4 5.02 -4 4 C-3.34 4 -2.68 4 -2 4 C-1.34 2.68 -0.68 1.36 0 0 Z " fill="#FBD17F" transform="translate(28,52)" /><path d="M0 0 C0 0.66 0 1.32 0 2 C-4.455 3.485 -4.455 3.485 -9 5 C-8.67 4.34 -8.34 3.68 -8 3 C-7.34 3 -6.68 3 -6 3 C-6 2.01 -6 1.02 -6 0 C-3.50907189 -1.24546405 -2.58919267 -0.7767578 0 0 Z " fill="#F6D189" transform="translate(62,149)" /><path d="M0 0 C1.98 0.495 1.98 0.495 4 1 C4 2.32 4 3.64 4 5 C2.35 5 0.7 5 -1 5 C-0.67 3.35 -0.34 1.7 0 0 Z " fill="#F7F7F7" transform="translate(129,69)" /><path d="M0 0 C1.98 0 3.96 0 6 0 C5.67 0.99 5.34 1.98 5 3 C5 2.34 5 1.68 5 1 C3.68 1 2.36 1 1 1 C1 2.32 1 3.64 1 5 C1.66 5.33 2.32 5.66 3 6 C1.35 6 -0.3 6 -2 6 C-2 4.68 -2 3.36 -2 2 C-1.34 2 -0.68 2 0 2 C0 1.34 0 0.68 0 0 Z " fill="#373737" transform="translate(46,223)" /><path d="M0 0 C1.65 0 3.3 0 5 0 C4.67 0.66 4.34 1.32 4 2 C3.34 2 2.68 2 2 2 C2 2.66 2 3.32 2 4 C2.66 4 3.32 4 4 4 C4 4.66 4 5.32 4 6 C2.35 5.67 0.7 5.34 -1 5 C-0.67 3.35 -0.34 1.7 0 0 Z " fill="#3C3C3C" transform="translate(26,223)" /><path d="M0 0 C0.99 0 1.98 0 3 0 C3.33 2.31 3.66 4.62 4 7 C1.69 7.33 -0.62 7.66 -3 8 C-1.68 7.67 -0.36 7.34 1 7 C1.33 5.02 1.66 3.04 2 1 C1.34 0.67 0.68 0.34 0 0 Z " fill="#EFC377" transform="translate(161,157)" /><path d="M0 0 C1.32 0.66 2.64 1.32 4 2 C2.75 3.5625 2.75 3.5625 1 5 C-1.125 4.8125 -1.125 4.8125 -3 4 C-3.33 3.34 -3.66 2.68 -4 2 C-2.68 2 -1.36 2 0 2 C0 1.34 0 0.68 0 0 Z " fill="#F7D48A" transform="translate(163,152)" /><path d="M0 0 C0.99 0.33 1.98 0.66 3 1 C3 4.3 3 7.6 3 11 C0.43383368 7.15075052 0.44902324 4.5650696 0 0 Z " fill="#FDF3E0" transform="translate(200,85)" /><path d="M0 0 C0.33 0.66 0.66 1.32 1 2 C-0.32 3.32 -1.64 4.64 -3 6 C-3.99 5.67 -4.98 5.34 -6 5 C-6 4.34 -6 3.68 -6 3 C-4.02 2.01 -2.04 1.02 0 0 Z " fill="#363636" transform="translate(23,231)" /><path d="M0 0 C1.98 0.99 3.96 1.98 6 3 C6 3.33 6 3.66 6 4 C2.37 3.67 -1.26 3.34 -5 3 C-3.68 2.34 -2.36 1.68 -1 1 C-0.67 0.67 -0.34 0.34 0 0 Z " fill="#EEC162" transform="translate(113,163)" /><path d="M0 0 C2.9719385 1.12451727 5.33440687 2.22293791 8 4 C5.36 4.33 2.72 4.66 0 5 C0 3.35 0 1.7 0 0 Z " fill="#F7CD74" transform="translate(128,107)" /><path d="M0 0 C2 1 2 1 3.125 3.375 C4 6 4 6 4 9 C2.68 9 1.36 9 0 9 C0 6.03 0 3.06 0 0 Z " fill="#FBD382" transform="translate(48,93)" /><path d="M0 0 C-0.99 1.485 -0.99 1.485 -2 3 C-1.67 3.66 -1.34 4.32 -1 5 C-3.02045442 4.39816251 -5.02111039 3.72693904 -7 3 C-7.33 2.34 -7.66 1.68 -8 1 C-5.29120665 -0.35439668 -2.99066732 -0.06501451 0 0 Z " fill="#717171" transform="translate(134,81)" /><path d="M0 0 C0.99 0 1.98 0 3 0 C3 0.66 3 1.32 3 2 C5.475 2.99 5.475 2.99 8 4 C7.67 4.66 7.34 5.32 7 6 C3.535 4.02 3.535 4.02 0 2 C0 1.34 0 0.68 0 0 Z " fill="#F8CF7F" transform="translate(149,24)" /><path d="M0 0 C1.32 1.32 2.64 2.64 4 4 C1.3333581 5.33332095 -0.16680303 4.67102033 -3 4 C-3 3.01 -3 2.02 -3 1 C-2.01 0.67 -1.02 0.34 0 0 Z " fill="#D5D5D5" transform="translate(30,228)" /><path d="M0 0 C0.86625 0.3403125 0.86625 0.3403125 1.75 0.6875 C1.75 1.3475 1.75 2.0075 1.75 2.6875 C0.1 2.6875 -1.55 2.6875 -3.25 2.6875 C-3.25 3.3475 -3.25 4.0075 -3.25 4.6875 C-4.24 4.6875 -5.23 4.6875 -6.25 4.6875 C-6.25 4.0275 -6.25 3.3675 -6.25 2.6875 C-3.02697842 -0.42041367 -3.02697842 -0.42041367 0 0 Z " fill="#FBD386" transform="translate(65.25,51.3125)" /><path d="M0 0 C0.33 0.66 0.66 1.32 1 2 C0.34 2 -0.32 2 -1 2 C-1 2.66 -1 3.32 -1 4 C-4.62326739 5.2077558 -5.64146369 4.54311128 -9 3 C-9 2.67 -9 2.34 -9 2 C-6.03 1.34 -3.06 0.68 0 0 Z " fill="#746F6E" transform="translate(91,158)" /><path d="M0 0 C-4.08443115 1.53166168 -7.79455657 0.63081652 -12 0 C-12 -0.33 -12 -0.66 -12 -1 C-3.42857143 -2.42857143 -3.42857143 -2.42857143 0 0 Z " fill="#FDF4DC" transform="translate(127,15)" /></svg>