<?xml version="1.0" encoding="UTF-8"?>
<svg version="1.1" xmlns="http://www.w3.org/2000/svg" width="678" height="155">
<path d="M0 0 C223.74 0 447.48 0 678 0 C678 51.15 678 102.3 678 155 C454.26 155 230.52 155 0 155 C0 103.85 0 52.7 0 0 Z " fill="#F4FAFD" transform="translate(0,0)"/>
<path d="M0 0 C3.54480172 2.80828836 6.79814083 5.8088137 10 9 C10.7115625 9.68835938 11.423125 10.37671875 12.15625 11.0859375 C23.54313791 22.86698692 27.45621306 37.09259317 27.43383789 53.04907227 C27.03462185 71.16287888 19.71154787 86.38097419 8.50146484 100.31738281 C2.9760725 107.3232118 -0.00449499 115.1959214 -0.24609375 124.09765625 C-0.29540039 125.54688477 -0.29540039 125.54688477 -0.34570312 127.02539062 C-0.40701556 129.05391892 -0.46429244 131.08257312 -0.51757812 133.11132812 C-0.55173828 134.07619141 -0.58589844 135.04105469 -0.62109375 136.03515625 C-0.6461499 136.9156665 -0.67120605 137.79617676 -0.69702148 138.70336914 C-1 141 -1 141 -3 144 C-5.23913574 144.38095093 -5.23913574 144.38095093 -8.06054688 144.38818359 C-9.11504028 144.39764008 -10.16953369 144.40709656 -11.25598145 144.4168396 C-12.39869507 144.41076691 -13.54140869 144.40469421 -14.71875 144.3984375 C-16.47197571 144.40274277 -16.47197571 144.40274277 -18.26062012 144.40713501 C-20.73543786 144.40917939 -23.21027163 144.40362355 -25.68505859 144.39111328 C-29.48441522 144.37506583 -33.28270792 144.39095034 -37.08203125 144.41015625 C-39.48177319 144.40817389 -41.88151447 144.40433035 -44.28125 144.3984375 C-45.42396362 144.40451019 -46.56667725 144.41058289 -47.74401855 144.4168396 C-49.32575867 144.40265488 -49.32575867 144.40265488 -50.93945312 144.38818359 C-51.8705188 144.38579681 -52.80158447 144.38341003 -53.76086426 144.38095093 C-54.49977905 144.25523712 -55.23869385 144.12952332 -56 144 C-57.90765822 141.13851267 -58.4283509 139.64699621 -59.0625 136.375 C-59.47094016 133.40230348 -59.47094016 133.40230348 -61 131 C-62.85577171 130.89054884 -64.71532876 130.84412367 -66.57421875 130.82421875 C-67.71697266 130.80037109 -68.85972656 130.77652344 -70.03710938 130.75195312 C-72.45099789 130.7093323 -74.86511242 130.67789468 -77.27929688 130.65820312 C-85.96925919 130.44863028 -89.59621557 129.48294221 -95.6875 123.25 C-101.26796203 115.4071885 -102.17314774 107.03856936 -102.0625 97.625 C-102.05798828 96.88894531 -102.05347656 96.15289062 -102.04882812 95.39453125 C-102.03715142 93.59631842 -102.01922011 91.79814803 -102 90 C-102.83144531 90.04640625 -103.66289063 90.0928125 -104.51953125 90.140625 C-105.60621094 90.17671875 -106.69289063 90.2128125 -107.8125 90.25 C-108.89144531 90.29640625 -109.97039062 90.3428125 -111.08203125 90.390625 C-114 90 -114 90 -115.94921875 88.421875 C-117.51900943 84.80377008 -117.02169191 82.80492158 -116 79 C-114.43493218 75.94332819 -112.5786524 73.11322301 -110.6875 70.25 C-105.54168322 62.10560079 -102.09388879 54.75864479 -99.91015625 45.34375 C-95.41809455 26.03814387 -87.65353422 10.57688004 -70.52734375 -0.54296875 C-66.1473631 -3.06805806 -61.71396353 -5.17459285 -57 -7 C-56.18402344 -7.32097656 -55.36804688 -7.64195313 -54.52734375 -7.97265625 C-37.11511438 -13.7587912 -14.96704102 -10.44212164 0 0 Z " fill="#749CA1" transform="translate(171,11)"/>
<path d="M0 0 C52.14 0 104.28 0 158 0 C157.67 0.66 157.34 1.32 157 2 C156.34 2 155.68 2 155 2 C155 2.66 155 3.32 155 4 C154.42636719 3.855625 153.85273438 3.71125 153.26171875 3.5625 C134.88441839 -0.45317716 116.98741271 1.53565005 100.65625 11.15234375 C85.4566411 21.72501288 76.58538948 35.82105058 72.5625 53.8125 C69.77598282 65.43863483 65.99266 75.2520194 59.03417969 85.01904297 C56.29730103 88.98412806 55.16128856 92.17862404 55 97 C55.99 98.485 55.99 98.485 57 100 C59.88595946 100.58481121 59.88595946 100.58481121 63.125 100.6875 C64.22070312 100.75324219 65.31640625 100.81898437 66.4453125 100.88671875 C67.28835937 100.92410156 68.13140625 100.96148437 69 101 C69.05607422 102.52367188 69.05607422 102.52367188 69.11328125 104.078125 C69.67786422 120.61383873 69.67786422 120.61383873 77 135 C81.49831895 138.96280479 83.83280981 140.11295982 89.77734375 140.17578125 C90.93041016 140.19962891 92.08347656 140.22347656 93.27148438 140.24804688 C95.71141158 140.29094384 98.15157103 140.32223333 100.59179688 140.34179688 C102.32333008 140.38336914 102.32333008 140.38336914 104.08984375 140.42578125 C105.15066162 140.44036377 106.21147949 140.45494629 107.30444336 140.4699707 C110 141 110 141 113 145 C113.66 148.3 114.32 151.6 115 155 C77.05 155 39.1 155 0 155 C0 103.85 0 52.7 0 0 Z " fill="#F5FAFD" transform="translate(0,0)"/>
<path d="M0 0 C13.03387121 7.58851227 24.12412014 18.39990775 29 33 C32.83860996 49.81887042 30.37083424 67.11989095 21.62109375 81.796875 C21.08613281 82.52390625 20.55117187 83.2509375 20 84 C19.34 84 18.68 84 18 84 C17.77699219 84.60457031 17.55398437 85.20914063 17.32421875 85.83203125 C15.57457493 88.69649236 13.86681515 89.35202703 10.8125 90.6875 C9.42998047 91.31205078 9.42998047 91.31205078 8.01953125 91.94921875 C4.68224716 93.11057635 1.5041577 93.60289122 -2 94 C-4.11161731 78.25512528 -4.11161731 78.25512528 -5 71 C-3.948125 70.34 -2.89625 69.68 -1.8125 69 C3.72660064 64.94098293 6.42591028 60.94818991 7.75 54.1484375 C8.29117758 50.44213795 8.67451304 46.73095496 9 43 C7.02 43.33 5.04 43.66 3 44 C2.87044922 45.19496094 2.87044922 45.19496094 2.73828125 46.4140625 C1.84492068 53.15114866 1.1077249 57.37872509 -4 62 C-6.3125 63.375 -6.3125 63.375 -8 64 C-8.53625 63.278125 -9.0725 62.55625 -9.625 61.8125 C-13.12290399 57.67024528 -16.93511619 54.14283546 -22 52 C-20.21086262 46.37699681 -20.21086262 46.37699681 -18.96875 44.15625 C-17.76685466 41.48106359 -17.58345541 39.16837577 -17.375 36.25 C-17.30023438 35.26515625 -17.22546875 34.2803125 -17.1484375 33.265625 C-17.09945312 32.51796875 -17.05046875 31.7703125 -17 31 C-18.65 31 -20.3 31 -22 31 C-22.09796875 31.58007812 -22.1959375 32.16015625 -22.296875 32.7578125 C-23.29903119 37.99321469 -24.58620531 41.75861871 -28 46 C-32.37819011 48.91879341 -36.51788475 48.44570491 -41.5234375 47.546875 C-43.69351044 47.06767908 -45.84888745 46.55769585 -48 46 C-47.67 47.98 -47.34 49.96 -47 52 C-45.44152344 52.23783203 -45.44152344 52.23783203 -43.8515625 52.48046875 C-32.86882958 54.26719022 -22.75295419 56.32834893 -15.58276367 65.62451172 C-9.95357539 74.0730698 -9.46155747 82.80834325 -9.75 92.6875 C-9.76804687 93.87794922 -9.78609375 95.06839844 -9.8046875 96.29492188 C-9.85131511 99.19749031 -9.91673719 102.09829111 -10 105 C-12.64 105 -15.28 105 -18 105 C-18.07476562 104.02160156 -18.14953125 103.04320313 -18.2265625 102.03515625 C-19.22714937 92.05871654 -21.30787479 84.96132785 -29 78 C-36.41368601 74.27709742 -44.29268759 74.56590942 -52.38476562 74.56054688 C-59.59202921 74.42092721 -67.0163539 73.48502884 -72.65405273 68.55297852 C-74 67 -74 67 -76 64 C-76.433125 63.38125 -76.86625 62.7625 -77.3125 62.125 C-78.84058767 57.40181992 -78.47585483 53.30233954 -76.8125 48.75 C-74.78171259 45.66880531 -73.14899652 43.93233878 -70 42 C-66.1875 41.25 -66.1875 41.25 -63 41 C-63.495 39.989375 -63.99 38.97875 -64.5 37.9375 C-66.37390467 33.47240657 -66.85873769 29.6733322 -65.34375 24.95703125 C-63.13165858 19.87494191 -60.18678996 16.18658792 -55 14 C-49.65597753 13.11553635 -45.00596815 13.94626948 -40 16 C-39.82984375 15.34773438 -39.6596875 14.69546875 -39.484375 14.0234375 C-37.63073322 7.33849533 -35.86259031 1.47440695 -29.6875 -2.375 C-20.27555435 -6.56199638 -8.76886682 -4.88335169 0 0 Z " fill="#ADD0F8" transform="translate(159,14)"/>
<path d="M0 0 C1.02950095 -0.00218016 1.02950095 -0.00218016 2.07979989 -0.00440437 C4.40853767 -0.0080902 6.73721105 -0.00456608 9.06594849 -0.0011425 C10.74076814 -0.0022933 12.41558755 -0.00388055 14.09040642 -0.00586975 C18.71526221 -0.01006872 23.34009753 -0.00796983 27.96495342 -0.00488353 C32.94387137 -0.00263194 37.92278565 -0.00610783 42.90170288 -0.00886345 C52.66431911 -0.01332274 62.42692767 -0.01234397 72.1895442 -0.00945081 C80.12000561 -0.0071974 88.05046487 -0.00688398 95.98092651 -0.00797462 C97.67048519 -0.00820447 97.67048519 -0.00820447 99.39417636 -0.00843897 C101.6819911 -0.00875867 103.96980584 -0.00908289 106.25762057 -0.00941156 C127.73787163 -0.01226682 149.21811843 -0.00897861 170.69836879 -0.00361119 C189.15113837 0.00085689 207.60390167 0.00008097 226.05667114 -0.00452995 C247.4572135 -0.00987491 268.85775212 -0.01199212 290.25829506 -0.00891769 C292.53794988 -0.00859912 294.8176047 -0.00828475 297.09725952 -0.00797462 C298.21905259 -0.00782035 299.34084566 -0.00766607 300.49663246 -0.00750712 C308.42255039 -0.00664173 316.34846597 -0.00810532 324.27438354 -0.01045418 C333.92627208 -0.01325151 343.57815248 -0.01251535 353.23004007 -0.00717343 C358.15967412 -0.0045355 363.08929457 -0.00353289 368.01892853 -0.00682259 C372.52411345 -0.00978368 377.02927207 -0.00819589 381.53445458 -0.00284503 C383.17171269 -0.00172004 384.80897298 -0.00231382 386.4462297 -0.00472082 C388.65691425 -0.00772368 390.86750646 -0.00468153 393.07818604 0 C394.31059587 0.00016235 395.54300571 0.0003247 396.81276131 0.00049198 C399.53909302 0.12584114 399.53909302 0.12584114 400.53909302 1.12584114 C400.53909302 2.77584114 400.53909302 4.42584114 400.53909302 6.12584114 C266.22909302 6.12584114 131.91909302 6.12584114 -6.46090698 6.12584114 C-6.79090698 4.47584114 -7.12090698 2.82584114 -7.46090698 1.12584114 C-5.59878171 -0.73628413 -2.48433992 0.00032728 0 0 Z " fill="#A5CAF4" transform="translate(230.46090698242188,104.87415885925293)"/>
<path d="M0 0 C4.62 0 9.24 0 14 0 C14.69867188 1.90265625 15.39734375 3.8053125 16.1171875 5.765625 C16.79882495 7.6157838 17.48047896 9.46593654 18.16259766 11.31591797 C18.63478215 12.59783899 19.10614625 13.88006252 19.57666016 15.16259766 C20.25465524 17.01024177 20.93588546 18.85669773 21.6171875 20.703125 C22.02565918 21.81333008 22.43413086 22.92353516 22.85498047 24.06738281 C24.03643372 27.22500066 24.03643372 27.22500066 26 31 C29.96 20.77 33.92 10.54 38 0 C42.62 0 47.24 0 52 0 C52 1.32 52 2.64 52 4 C50.68 4.33 49.36 4.66 48 5 C47.85579614 17.36948647 48.28488027 29.65141462 49 42 C49.99 42.33 50.98 42.66 52 43 C52 44.65 52 46.3 52 48 C46.72 48 41.44 48 36 48 C36 46.68 36 45.36 36 44 C36.99 43.34 37.98 42.68 39 42 C39.43283868 39.64597242 39.43283868 39.64597242 39.328125 36.9140625 C39.32039063 35.39425781 39.32039063 35.39425781 39.3125 33.84375 C39.291875 32.7815625 39.27125 31.719375 39.25 30.625 C39.24226563 29.04332031 39.24226563 29.04332031 39.234375 27.4296875 C39.20257796 21.14060964 39.20257796 21.14060964 38 15 C37.62488281 16.00417969 37.24976563 17.00835937 36.86328125 18.04296875 C36.07544703 20.15188857 35.28516505 22.25977479 34.48876953 24.36547852 C33.16326365 27.87191745 31.85758695 31.3802233 30.62890625 34.921875 C30.21511719 36.08203125 29.80132812 37.2421875 29.375 38.4375 C28.82972656 40.01337891 28.82972656 40.01337891 28.2734375 41.62109375 C27 44 27 44 24.8515625 44.84765625 C24.24054688 44.89792969 23.62953125 44.94820312 23 45 C18.07316436 34.85479997 13.80815947 24.6154189 10 14 C9.92590599 17.95092059 9.87142594 21.90157294 9.83520508 25.85302734 C9.81267749 27.85919374 9.7745643 29.86516526 9.73632812 31.87109375 C9.72666016 33.12792969 9.71699219 34.38476562 9.70703125 35.6796875 C9.6913208 36.84226074 9.67561035 38.00483398 9.65942383 39.20263672 C9.77181396 40.1257666 9.8842041 41.04889648 10 42 C10.99 42.66 11.98 43.32 13 44 C13 45.32 13 46.64 13 48 C8.38 48 3.76 48 -1 48 C-0.67 46.35 -0.34 44.7 0 43 C0.66 43 1.32 43 2 43 C2.7680946 29.9835398 3.13274757 17.03876128 3 4 C2.01 4 1.02 4 0 4 C0 2.68 0 1.36 0 0 Z " fill="#749A9D" transform="translate(224,41)"/>
<path d="M0 0 C3.83307169 -0.11719175 7.66567608 -0.18758077 11.5 -0.25 C12.57765625 -0.28351562 13.6553125 -0.31703125 14.765625 -0.3515625 C21.69428515 -0.43605836 26.11963485 0.25607593 32 4 C34.53063075 6.92604181 34.95487657 8.58636852 35.375 12.4375 C34.67413652 19.09570306 31.67004848 22.4598874 27 27 C27.5775 27.91523437 28.155 28.83046875 28.75 29.7734375 C29.5002341 30.97381205 30.25022133 32.17434092 31 33.375 C31.57234375 34.27992187 31.57234375 34.27992187 32.15625 35.203125 C35 39.7734375 35 39.7734375 35 42 C36.65 42.66 38.3 43.32 40 44 C40 45.32 40 46.64 40 48 C35.34778383 48.48970696 32.22249676 48.69197475 28.4375 45.75 C23.86958968 41.36101704 20.69874082 35.68458173 18 30 C18 29.01 18 28.02 18 27 C16.35 27 14.7 27 13 27 C13 32.61 13 38.22 13 44 C14.32 44 15.64 44 17 44 C17 45.32 17 46.64 17 48 C11.39 48 5.78 48 0 48 C0 46.68 0 45.36 0 44 C1.32 44 2.64 44 4 44 C3.67 31.13 3.34 18.26 3 5 C2.01 4.67 1.02 4.34 0 4 C0 2.68 0 1.36 0 0 Z " fill="#7A9FA2" transform="translate(545,41)"/>
<path d="M0 0 C1.72597775 -0.16322732 3.45648337 -0.27895945 5.1875 -0.375 C6.15042969 -0.44460937 7.11335938 -0.51421875 8.10546875 -0.5859375 C12.21142255 0.24522724 13.78893351 2.67997332 16 6 C17.53212192 8.37677462 18.96776485 10.79753584 20.375 13.25 C23.94036897 19.44317795 27.87039697 25.10056711 32 31 C32.33 22.42 32.66 13.84 33 5 C31.68 5 30.36 5 29 5 C29 3.68 29 2.36 29 1 C33.62 1 38.24 1 43 1 C43 2.32 43 3.64 43 5 C41.68 5.33 40.36 5.66 39 6 C38.67 20.19 38.34 34.38 38 49 C36.35 49 34.7 49 33 49 C31.2265625 47.19921875 31.2265625 47.19921875 29.625 44.6875 C29.02816406 43.77097656 28.43132812 42.85445312 27.81640625 41.91015625 C26.91728516 40.46962891 26.91728516 40.46962891 26 39 C25.43152344 38.11183594 24.86304688 37.22367188 24.27734375 36.30859375 C23.12664071 34.50783523 21.98217602 32.70307623 20.84375 30.89453125 C17.64594011 25.87424073 14.31592573 20.94283875 11 16 C10.91325571 20.45821166 10.85969487 24.91620804 10.8125 29.375 C10.78736328 30.64601563 10.76222656 31.91703125 10.73632812 33.2265625 C10.72666016 34.43828125 10.71699219 35.65 10.70703125 36.8984375 C10.6913208 38.01911621 10.67561035 39.13979492 10.65942383 40.29443359 C10.82800903 41.63368896 10.82800903 41.63368896 11 43 C11.99 43.66 12.98 44.32 14 45 C14 46.32 14 47.64 14 49 C9.38 49 4.76 49 0 49 C0 47.68 0 46.36 0 45 C0.99 44.34 1.98 43.68 3 43 C3.33771517 40.16975238 3.48903335 37.54756033 3.51171875 34.7109375 C3.52966995 33.89251373 3.54762115 33.07408997 3.56611633 32.23086548 C3.62037514 29.61229636 3.65416404 26.99391106 3.6875 24.375 C3.72065943 22.60153683 3.75514779 20.82809796 3.79101562 19.0546875 C3.87611019 14.70325736 3.9428464 10.35188321 4 6 C2.35 5.67 0.7 5.34 -1 5 C-0.67 3.35 -0.34 1.7 0 0 Z " fill="#759A9D" transform="translate(328,40)"/>
<path d="M0 0 C2.31 0 4.62 0 7 0 C7.38333496 1.09465576 7.76666992 2.18931152 8.16162109 3.31713867 C9.5880842 7.38963057 11.01599447 11.46161382 12.44433594 15.53344727 C13.06159127 17.29372605 13.67845736 19.05414137 14.29492188 20.81469727 C15.18256252 23.34948397 16.0716152 25.88377164 16.9609375 28.41796875 C17.23497406 29.20149216 17.50901062 29.98501556 17.79135132 30.7922821 C18.29884567 32.23679114 18.81081625 33.67973933 19.32830811 35.12069702 C19.90426082 36.73213475 20.45582112 38.35225451 21.00244141 39.97387695 C21.33163574 40.64249756 21.66083008 41.31111816 22 42 C22.99 42.33 23.98 42.66 25 43 C25 44.65 25 46.3 25 48 C19.39 48 13.78 48 8 48 C8 46.68 8 45.36 8 44 C8.99 43.505 8.99 43.505 10 43 C10.07622858 39.03611362 9.9681648 35.8726592 9 32 C4.05 32 -0.9 32 -6 32 C-6.66 35.63 -7.32 39.26 -8 43 C-6.68 43.33 -5.36 43.66 -4 44 C-4 45.32 -4 46.64 -4 48 C-8.95 48 -13.9 48 -19 48 C-17.94560752 42.7280376 -17.5338287 42.41896879 -14 39 C-12.84857478 36.68935767 -12.84857478 36.68935767 -12.0703125 34.140625 C-11.75255859 33.19646729 -11.43480469 32.25230957 -11.10742188 31.27954102 C-10.78322266 30.27979248 -10.45902344 29.28004395 -10.125 28.25 C-9.43128616 26.18045303 -8.73596264 24.11144494 -8.0390625 22.04296875 C-7.6977832 21.02251465 -7.35650391 20.00206055 -7.00488281 18.95068359 C-5.58749966 14.78875629 -4.0613841 10.67220776 -2.5 6.5625 C-2.24492676 5.88928711 -1.98985352 5.21607422 -1.72705078 4.52246094 C-1.15384679 3.01402938 -0.57736788 1.5068427 0 0 Z " fill="#759A9C" transform="translate(606,41)"/>
<path d="M0 0 C2.31 0 4.62 0 7 0 C7.31227539 0.88671387 7.62455078 1.77342773 7.94628906 2.68701172 C9.1225123 6.02370718 10.3006321 9.35972094 11.47998047 12.6953125 C11.98690923 14.13027128 12.49311335 15.56548631 12.99853516 17.00097656 C17.464107 30.21989855 17.464107 30.21989855 23 43 C23.99 43.33 24.98 43.66 26 44 C26 45.32 26 46.64 26 48 C20.39 48 14.78 48 9 48 C9 46.35 9 44.7 9 43 C9.66 43 10.32 43 11 43 C10.34 39.7 9.68 36.4 9 33 C4.05 32.67 -0.9 32.34 -6 32 C-6.33 35.63 -6.66 39.26 -7 43 C-6.34 43.33 -5.68 43.66 -5 44 C-5 45.32 -5 46.64 -5 48 C-9.95 48 -14.9 48 -20 48 C-20 46.68 -20 45.36 -20 44 C-19.23703613 43.82686279 -18.47407227 43.65372559 -17.68798828 43.4753418 C-13.84560291 41.36639222 -13.22344046 38.3672821 -11.9921875 34.39453125 C-11.74002472 33.63710129 -11.48786194 32.87967133 -11.22805786 32.09928894 C-10.42529016 29.67595944 -9.6494907 27.24499766 -8.875 24.8125 C-8.08780249 22.39998819 -7.29516419 19.98933731 -6.5005188 17.57926941 C-6.00850765 16.08069363 -5.52175461 14.58037737 -5.04122925 13.07807922 C-3.59395983 8.59347104 -1.91755875 4.30552193 0 0 Z " fill="#769A9E" transform="translate(479,41)"/>
<path d="M0 0 C1.02950095 -0.00218016 1.02950095 -0.00218016 2.07979989 -0.00440437 C4.40853767 -0.0080902 6.73721105 -0.00456608 9.06594849 -0.0011425 C10.74076814 -0.0022933 12.41558755 -0.00388055 14.09040642 -0.00586975 C18.71526221 -0.01006872 23.34009753 -0.00796983 27.96495342 -0.00488353 C32.94387137 -0.00263194 37.92278565 -0.00610783 42.90170288 -0.00886345 C52.66431911 -0.01332274 62.42692767 -0.01234397 72.1895442 -0.00945081 C80.12000561 -0.0071974 88.05046487 -0.00688398 95.98092651 -0.00797462 C97.67048519 -0.00820447 97.67048519 -0.00820447 99.39417636 -0.00843897 C101.6819911 -0.00875867 103.96980584 -0.00908289 106.25762057 -0.00941156 C127.73787163 -0.01226682 149.21811843 -0.00897861 170.69836879 -0.00361119 C189.15113837 0.00085689 207.60390167 0.00008097 226.05667114 -0.00452995 C247.4572135 -0.00987491 268.85775212 -0.01199212 290.25829506 -0.00891769 C292.53794988 -0.00859912 294.8176047 -0.00828475 297.09725952 -0.00797462 C298.21905259 -0.00782035 299.34084566 -0.00766607 300.49663246 -0.00750712 C308.42255039 -0.00664173 316.34846597 -0.00810532 324.27438354 -0.01045418 C333.92627208 -0.01325151 343.57815248 -0.01251535 353.23004007 -0.00717343 C358.15967412 -0.0045355 363.08929457 -0.00353289 368.01892853 -0.00682259 C372.52411345 -0.00978368 377.02927207 -0.00819589 381.53445458 -0.00284503 C383.17171269 -0.00172004 384.80897298 -0.00231382 386.4462297 -0.00472082 C388.65691425 -0.00772368 390.86750646 -0.00468153 393.07818604 0 C394.31059587 0.00016235 395.54300571 0.0003247 396.81276131 0.00049198 C399.53909302 0.12584114 399.53909302 0.12584114 400.53909302 1.12584114 C400.53909302 2.77584114 400.53909302 4.42584114 400.53909302 6.12584114 C266.22909302 6.12584114 131.91909302 6.12584114 -6.46090698 6.12584114 C-6.79090698 4.47584114 -7.12090698 2.82584114 -7.46090698 1.12584114 C-5.59878171 -0.73628413 -2.48433992 0.00032728 0 0 Z M-5.46090698 1.12584114 C-5.46090698 2.44584114 -5.46090698 3.76584114 -5.46090698 5.12584114 C45.57305662 5.14871044 96.6070197 5.16634086 147.64098741 5.17690647 C153.66065218 5.17815724 159.68031694 5.17945155 165.69998169 5.18077278 C167.49765608 5.18116625 167.49765608 5.18116625 169.33164712 5.18156766 C188.75830073 5.18592362 208.18495138 5.19381077 227.61160324 5.20299394 C247.53260614 5.21233253 267.4536075 5.21789719 287.37461251 5.21992964 C299.67528377 5.22130443 311.9759467 5.22565271 324.2766154 5.23375761 C332.70196959 5.2390276 341.12731945 5.24064485 349.55267517 5.23934252 C354.41976796 5.23869954 359.28684616 5.23971219 364.15393639 5.24504662 C368.60436823 5.24988898 373.05477557 5.25017422 377.50520851 5.24674004 C379.12032573 5.24631517 380.73544442 5.24760386 382.35055868 5.25072432 C384.53619758 5.25470355 386.72174657 5.2525949 388.90738392 5.24888897 C390.73288941 5.24945855 390.73288941 5.24945855 392.59527379 5.25003964 C395.59979811 5.25891596 395.59979811 5.25891596 398.53909302 4.12584114 C398.20909302 3.13584114 397.87909302 2.14584114 397.53909302 1.12584114 C264.54909302 1.12584114 131.55909302 1.12584114 -5.46090698 1.12584114 Z " fill="#B9D4ED" transform="translate(230.46090698242188,104.87415885925293)"/>
<path d="M0 0 C5.63442335 3.16600931 8.21240236 6.97777161 10.9375 12.6875 C12.84483773 21.70400561 11.77948624 29.69619015 7.625 37.9375 C3.57422346 42.94767098 -1.98106589 47.46142543 -8.57421875 48.17578125 C-14.76043039 48.36029934 -19.29468925 47.60031333 -24.375 43.9375 C-29.94470201 38.36779799 -32.70787308 32.51854475 -32.89453125 24.73364258 C-32.88808594 24.01716553 -32.88164062 23.30068848 -32.875 22.5625 C-32.86855469 21.81444092 -32.86210937 21.06638184 -32.85546875 20.2956543 C-32.65409484 14.20475597 -31.56934157 9.5633169 -27.375 4.9375 C-19.31866163 -2.41351692 -10.26128304 -4.69219089 0 0 Z M-22.375 8.9375 C-24.64690165 13.21446922 -24.76043751 17.43947784 -24.75 22.1875 C-24.74838867 22.94240723 -24.74677734 23.69731445 -24.74511719 24.47509766 C-24.6199878 30.17093815 -23.92096668 35.27521048 -20.375 39.9375 C-17.42307202 42.68172303 -15.44586168 43.34955727 -11.4375 43.3125 C-7.23719424 43.1398002 -4.45723722 43.01973722 -1.375 39.9375 C3.62760004 32.06211973 3.56523717 22.91676495 2.625 13.9375 C1.23992077 9.05438904 -1.02025008 5.63067265 -5.375 2.9375 C-12.53914187 1.38946934 -17.91505679 3.09649483 -22.375 8.9375 Z " fill="#74999C" transform="translate(409.375,42.0625)"/>
<path d="M0 0 C1.98 0 3.96 0 6 0 C9.08354096 7.21911354 11.86162259 14.46109426 14.26171875 21.9375 C14.65238525 23.15074951 15.04305176 24.36399902 15.44555664 25.61401367 C16.22741403 28.06575401 16.99630354 30.52167029 17.75170898 32.98168945 C18.29613647 34.68651489 18.29613647 34.68651489 18.8515625 36.42578125 C19.32843506 37.96359253 19.32843506 37.96359253 19.81494141 39.5324707 C20.7964568 42.13560747 20.7964568 42.13560747 23.13427734 43.34838867 C23.74996582 43.56342041 24.3656543 43.77845215 25 44 C25 45.32 25 46.64 25 48 C19.39 48 13.78 48 8 48 C8 46.35 8 44.7 8 43 C8.99 43 9.98 43 11 43 C10.855625 42.30132812 10.71125 41.60265625 10.5625 40.8828125 C10.376875 39.97273438 10.19125 39.06265625 10 38.125 C9.814375 37.22007813 9.62875 36.31515625 9.4375 35.3828125 C9 33 9 33 9 31 C4.05 31.33 -0.9 31.66 -6 32 C-6.99 35.63 -7.98 39.26 -9 43 C-7.68 43.33 -6.36 43.66 -5 44 C-5 45.32 -5 46.64 -5 48 C-9.62 48 -14.24 48 -19 48 C-18.67 46.35 -18.34 44.7 -18 43 C-16.515 42.505 -16.515 42.505 -15 42 C-14.14471106 40.15774851 -14.14471106 40.15774851 -13.62890625 37.8359375 C-11.75270317 30.96915644 -9.34136564 24.32223266 -6.9375 17.625 C-6.48615787 16.35552927 -6.03498501 15.08599834 -5.58398438 13.81640625 C-5.15279297 12.61113281 -4.72160156 11.40585937 -4.27734375 10.1640625 C-3.88796631 9.07561035 -3.49858887 7.9871582 -3.09741211 6.86572266 C-2.18462295 4.4821144 -1.19571376 2.2511958 0 0 Z " fill="#739B9F" transform="translate(299,41)"/>
<path d="M0 0 C5.94 0 11.88 0 18 0 C18 1.32 18 2.64 18 4 C17.01 4 16.02 4 15 4 C17.36516863 9.54808173 19.91235274 14.81716353 23 20 C25.45564273 17.75258428 27.02416779 15.47444325 28.625 12.5625 C29.05039062 11.80066406 29.47578125 11.03882813 29.9140625 10.25390625 C30.92367559 8.15841434 31.53446789 6.2707622 32 4 C31.01 4 30.02 4 29 4 C29 2.68 29 1.36 29 0 C33.29 0 37.58 0 42 0 C42 1.32 42 2.64 42 4 C41.01 4.33 40.02 4.66 39 5 C36.66379195 8.12148807 34.89093298 11.59541153 33 15 C32.443125 15.91394531 31.88625 16.82789062 31.3125 17.76953125 C26.55798851 26.12421369 26.02384171 33.60636676 26 43 C27.32 43 28.64 43 30 43 C30 44.65 30 46.3 30 48 C24.39 48 18.78 48 13 48 C13 46.35 13 44.7 13 43 C14.32 43 15.64 43 17 43 C17.63639748 29.06996634 13.53785114 16.9323536 4.4375 6.1484375 C2.87914506 4.76800222 2.87914506 4.76800222 0 4 C0 2.68 0 1.36 0 0 Z " fill="#759A9D" transform="translate(422,41)"/>
<path d="M0 0 C12.21 0 24.42 0 37 0 C37 4.29 37 8.58 37 13 C35.68 12.67 34.36 12.34 33 12 C32.505 8.535 32.505 8.535 32 5 C29.03 4.67 26.06 4.34 23 4 C23.0721875 5.13953125 23.144375 6.2790625 23.21875 7.453125 C23.92830076 19.31565006 24.11268306 31.11819691 24 43 C25.32 43 26.64 43 28 43 C28 44.65 28 46.3 28 48 C22.06 48 16.12 48 10 48 C10 46.68 10 45.36 10 44 C11.65 44 13.3 44 15 44 C15 30.8 15 17.6 15 4 C12.36 4.33 9.72 4.66 7 5 C5.0549 7.91765 4.54723683 9.62537285 4 13 C2.68 13 1.36 13 0 13 C0 8.71 0 4.42 0 0 Z " fill="#7A9FA2" transform="translate(502,41)"/>
<path d="M0 0 C2.83439137 -0.10901505 5.66450203 -0.18777904 8.5 -0.25 C9.29148437 -0.28351562 10.08296875 -0.31703125 10.8984375 -0.3515625 C16.75940041 -0.44764386 21.11237471 0.68752304 26 4 C28.53063075 6.92604181 28.95487657 8.58636852 29.375 12.4375 C28.67413652 19.09570306 25.67004848 22.4598874 21 27 C21.5775 27.91523437 22.155 28.83046875 22.75 29.7734375 C23.5002341 30.97381205 24.25022133 32.17434092 25 33.375 C25.57234375 34.27992187 25.57234375 34.27992187 26.15625 35.203125 C29 39.7734375 29 39.7734375 29 42 C30.65 42.66 32.3 43.32 34 44 C34 45.32 34 46.64 34 48 C29.34778383 48.48970696 26.22249676 48.69197475 22.4375 45.75 C17.88226899 41.36270377 14.61925702 35.7161901 12 30 C12 28.68 12 27.36 12 26 C10.35 26 8.7 26 7 26 C7 25.01 7 24.02 7 23 C7.92232422 22.83564453 7.92232422 22.83564453 8.86328125 22.66796875 C9.67152344 22.50941406 10.47976563 22.35085937 11.3125 22.1875 C12.11300781 22.03667969 12.91351562 21.88585937 13.73828125 21.73046875 C16.36165306 20.88319668 17.44179355 20.27737866 19 18 C19.36270484 15.25756437 19.36270484 15.25756437 19.1875 12.3125 C19.125625 10.559375 19.06375 8.80625 19 7 C15.37 6.01 11.74 5.02 8 4 C8 3.67 8 3.34 8 3 C5.36 2.67 2.72 2.34 0 2 C0 1.34 0 0.68 0 0 Z " fill="#749A9D" transform="translate(551,41)"/>
<path d="M0 0 C0.66 0 1.32 0 2 0 C3.98 5.61 5.96 11.22 8 17 C8.66 17 9.32 17 10 17 C10.33 14.03 10.66 11.06 11 8 C12.84082199 10.76123298 13.64178282 12.69277365 14.5859375 15.81640625 C14.87726562 16.74517578 15.16859375 17.67394531 15.46875 18.63085938 C16.07334278 20.58666491 16.66969575 22.54503648 17.2578125 24.50585938 C17.55171875 25.43333984 17.845625 26.36082031 18.1484375 27.31640625 C18.40802246 28.16662354 18.66760742 29.01684082 18.93505859 29.89282227 C20.22665613 32.44847983 21.36510454 33.01097536 24 34 C24 35.65 24 37.3 24 39 C18.39 39 12.78 39 7 39 C7 37.68 7 36.36 7 35 C7.99 34.505 7.99 34.505 9 34 C9.07622858 30.03611362 8.9681648 26.8726592 8 23 C4.37 23 0.74 23 -3 23 C-3 22.67 -3 22.34 -3 22 C0.3 21.67 3.6 21.34 7 21 C6.67 20.34 6.34 19.68 6 19 C3.41394668 18.5316735 3.41394668 18.5316735 0.4375 18.375 C-0.57441406 18.30023438 -1.58632813 18.22546875 -2.62890625 18.1484375 C-3.80259766 18.07496094 -3.80259766 18.07496094 -5 18 C-4.35702496 15.37426939 -3.71075589 12.74942697 -3.0625 10.125 C-2.88009766 9.37863281 -2.69769531 8.63226563 -2.50976562 7.86328125 C-1.11328125 2.2265625 -1.11328125 2.2265625 0 0 Z " fill="#789CA0" transform="translate(607,50)"/>
<path d="M0 0 C1.98 0 3.96 0 6 0 C12.51936219 15.56036446 12.51936219 15.56036446 14 24 C12.68 24 11.36 24 10 24 C9.67 24.99 9.34 25.98 9 27 C4.38 27 -0.24 27 -5 27 C-5.33 25.35 -5.66 23.7 -6 22 C-6.66 21.34 -7.32 20.68 -8 20 C-6.85573841 17.04105631 -5.70932343 14.08295162 -4.5625 11.125 C-4.07426758 9.86236328 -4.07426758 9.86236328 -3.57617188 8.57421875 C-3.10727539 7.36572266 -3.10727539 7.36572266 -2.62890625 6.1328125 C-2.34088135 5.38918457 -2.05285645 4.64555664 -1.75610352 3.87939453 C-1 2 -1 2 0 0 Z " fill="#789B9E" transform="translate(299,41)"/>
<path d="M0 0 C4.62 0 9.24 0 14 0 C14 1.32 14 2.64 14 4 C12.68 4.33 11.36 4.66 10 5 C9.67 19.19 9.34 33.38 9 48 C4 48 4 48 2.0625 46.375 C1 44 1 44 1.8125 40.8125 C2.204375 39.884375 2.59625 38.95625 3 38 C3 37.67 3 37.34 3 37 C3.3304834 36.29077393 3.6609668 35.58154785 4.00146484 34.85083008 C5.18355814 31.47593927 5.13941575 28.95320489 4.9765625 25.38671875 C4.925 24.13955078 4.8734375 22.89238281 4.8203125 21.60742188 C4.75585938 20.31384766 4.69140625 19.02027344 4.625 17.6875 C4.56828125 16.37458984 4.5115625 15.06167969 4.453125 13.70898438 C4.31187857 10.47208697 4.16048335 7.23599134 4 4 C2.68 4 1.36 4 0 4 C0 2.68 0 1.36 0 0 Z " fill="#73979A" transform="translate(357,41)"/>
<path d="M0 0 C12.21 0 24.42 0 37 0 C37 4.29 37 8.58 37 13 C35.68 12.67 34.36 12.34 33 12 C32.505 8.535 32.505 8.535 32 5 C29.03 4.67 26.06 4.34 23 4 C23 6.31 23 8.62 23 11 C21 9 19 7 17 5 C14.70384446 4.76180772 14.70384446 4.76180772 12.0625 4.75 C11.16660156 4.72421875 10.27070312 4.6984375 9.34765625 4.671875 C8.18556641 4.83429687 8.18556641 4.83429687 7 5 C5.0549 7.91765 4.54723683 9.62537285 4 13 C2.68 13 1.36 13 0 13 C0 8.71 0 4.42 0 0 Z " fill="#74979A" transform="translate(502,41)"/>
<path d="M0 0 C0.33 1.32 0.66 2.64 1 4 C1.66 4 2.32 4 3 4 C2.85691406 5.48113281 2.85691406 5.48113281 2.7109375 6.9921875 C2.54464844 8.91417969 2.54464844 8.91417969 2.375 10.875 C2.25898438 12.15117188 2.14296875 13.42734375 2.0234375 14.7421875 C2.01570313 15.81726563 2.00796875 16.89234375 2 18 C2.66 18.66 3.32 19.32 4 20 C2.02 20.33 0.04 20.66 -2 21 C-2.33 24.63 -2.66 28.26 -3 32 C-2.34 32.33 -1.68 32.66 -1 33 C-1 34.32 -1 35.64 -1 37 C-5.95 37 -10.9 37 -16 37 C-16 35.68 -16 34.36 -16 33 C-15.22946289 32.80341797 -14.45892578 32.60683594 -13.66503906 32.40429688 C-9.94228856 30.442657 -9.64116321 28.48458845 -8.359375 24.53125 C-8.04060394 23.57708191 -8.04060394 23.57708191 -7.71539307 22.6036377 C-7.04185034 20.57460966 -6.39553218 18.53809228 -5.75 16.5 C-5.30129543 15.12831078 -4.85079388 13.75720801 -4.3984375 12.38671875 C-3.57148326 9.88026111 -2.75761213 7.37101235 -1.95214844 4.85742188 C-1 2 -1 2 0 0 Z " fill="#6E9395" transform="translate(475,52)"/>
<path d="M0 0 C1.32 0.66 2.64 1.32 4 2 C3.67 3.32 3.34 4.64 3 6 C6.63 6 10.26 6 14 6 C14 6.33 14 6.66 14 7 C11.03 7 8.06 7 5 7 C5 7.66 5 8.32 5 9 C8.63 9 12.26 9 16 9 C16 9.33 16 9.66 16 10 C11.38 10.33 6.76 10.66 2 11 C1.01 14.63 0.02 18.26 -1 22 C0.32 22.33 1.64 22.66 3 23 C3 24.32 3 25.64 3 27 C-1.62 27 -6.24 27 -11 27 C-10.67 25.35 -10.34 23.7 -10 22 C-9.01 21.67 -8.02 21.34 -7 21 C-6.10917448 19.04309081 -6.10917448 19.04309081 -5.5625 16.625 C-4.02229044 10.95571801 -2.05943667 5.49880045 0 0 Z " fill="#72989B" transform="translate(291,62)"/>
<path d="M0 0 C8.10626703 0.47683924 8.10626703 0.47683924 11.5625 2.5 C13.74277869 6.29178903 13.74310904 9.7369008 13 14 C11.5625 16.5625 11.5625 16.5625 9 18 C6.03 18 3.06 18 0 18 C0 12.06 0 6.12 0 0 Z " fill="#F1FAFD" transform="translate(558,45)"/>
<path d="M0 0 C0.33 0 0.66 0 1 0 C2.25977429 5.89249264 2.22020253 11.75325832 2.25 17.75 C2.270625 18.80316406 2.29125 19.85632813 2.3125 20.94140625 C2.31765625 21.94558594 2.3228125 22.94976562 2.328125 23.984375 C2.34214355 25.35674316 2.34214355 25.35674316 2.35644531 26.75683594 C2.23881836 27.49708008 2.12119141 28.23732422 2 29 C1.01 29.66 0.02 30.32 -1 31 C-1 30.01 -1 29.02 -1 28 C-1.33 27.67 -1.66 27.34 -2 27 C-2.66 27.99 -3.32 28.98 -4 30 C-6.49664253 30.88590541 -8.32115341 31 -11 31 C-9.18824948 24.24566692 -6.81507034 17.81224903 -4.15771484 11.35522461 C-2.62015931 7.61072527 -1.23564602 3.8547426 0 0 Z M-9 31 C-8.67 31.66 -8.34 32.32 -8 33 C-8.66 32.67 -9.32 32.34 -10 32 C-9.67 31.67 -9.34 31.34 -9 31 Z " fill="#EAF6F8" transform="translate(262,54)"/>
<path d="M0 0 C3.00340519 1.5017026 3.18287101 3.96248258 4.2109375 6.984375 C4.47132813 7.77328125 4.73171875 8.5621875 5 9.375 C5.51692872 10.92578617 6.03762543 12.4753226 6.5625 14.0234375 C6.79066406 14.71356934 7.01882813 15.40370117 7.25390625 16.11474609 C8.03368619 18.27759325 8.03368619 18.27759325 10 21 C10.99 21.33 11.98 21.66 13 22 C13 23.32 13 24.64 13 26 C7.39 26 1.78 26 -4 26 C-4 24.35 -4 22.7 -4 21 C-3.34 21 -2.68 21 -2 21 C-2.061875 20.0925 -2.12375 19.185 -2.1875 18.25 C-1.97678268 14.59756643 -1.14073852 13.79226764 1 11 C0.71447643 9.10332891 0.71447643 9.10332891 0 7 C-0.03888349 4.66699067 -0.0448635 2.33290199 0 0 Z " fill="#7B9DA2" transform="translate(492,63)"/>
<path d="M0 0 C2.66666667 0 5.33333333 0 8 0 C7.51999489 5.04005364 6.23942325 8.09607967 3 12 C-2.19990453 15.8999284 -6.60069801 18.14804288 -13.1875 18.0625 C-14.53908203 18.04896484 -14.53908203 18.04896484 -15.91796875 18.03515625 C-16.60503906 18.02355469 -17.29210937 18.01195313 -18 18 C-18 17.67 -18 17.34 -18 17 C-15.03 16.67 -12.06 16.34 -9 16 C-10.98 15.34 -12.96 14.68 -15 14 C-15 13.67 -15 13.34 -15 13 C-14.07767578 12.83564453 -14.07767578 12.83564453 -13.13671875 12.66796875 C-12.32847656 12.50941406 -11.52023437 12.35085937 -10.6875 12.1875 C-9.88699219 12.03667969 -9.08648437 11.88585937 -8.26171875 11.73046875 C-5.67733074 10.8957873 -4.65750619 10.13107939 -3 8 C-2.01371583 5.96922316 -2.01371583 5.96922316 -1.3125 3.8125 C-1.06113281 3.09707031 -0.80976563 2.38164063 -0.55078125 1.64453125 C-0.36902344 1.10183594 -0.18726563 0.55914062 0 0 Z " fill="#769A9D" transform="translate(411,72)"/>
<path d="M0 0 C2.55260028 3.31757512 4.87469946 6.76184181 7.1875 10.25 C7.90292969 11.32765625 8.61835938 12.4053125 9.35546875 13.515625 C9.89816406 14.33546875 10.44085938 15.1553125 11 16 C10.34 16.66 9.68 17.32 9 18 C5.98672434 16.49336217 5.38943382 13.96833589 4 11 C3.67 13.64 3.34 16.28 3 19 C0 16 0 16 -6 7 C-6.33 15.25 -6.66 23.5 -7 32 C-7.33 32 -7.66 32 -8 32 C-8 22.43 -8 12.86 -8 3 C-6.02 3.66 -4.04 4.32 -2 5 C-2 5.99 -2 6.98 -2 8 C-1.34 7.67 -0.68 7.34 0 7 C0 5.68 0 4.36 0 3 C-0.66 2.67 -1.32 2.34 -2 2 C-1.34 1.34 -0.68 0.68 0 0 Z " fill="#86A6A9" transform="translate(345,49)"/>
<path d="M0 0 C2.61281474 3.91922211 3.68563874 8.15200322 4.96875 12.63867188 C6.18123639 16.66627594 6.18123639 16.66627594 9.1640625 19.46484375 C10.07285156 19.72974609 10.07285156 19.72974609 11 20 C11 21.32 11 22.64 11 24 C5.39 24 -0.22 24 -6 24 C-6 22.35 -6 20.7 -6 19 C-1.25 19.875 -1.25 19.875 1 21 C2.09658936 17.71023192 1.79953138 16.28696233 1 13 C1.66 13 2.32 13 3 13 C3 12.01 3 11.02 3 10 C2.34 10 1.68 10 1 10 C0.87625 9.360625 0.7525 8.72125 0.625 8.0625 C0.41875 7.381875 0.2125 6.70125 0 6 C-0.66 5.67 -1.32 5.34 -2 5 C-1.34 3.35 -0.68 1.7 0 0 Z " fill="#81A2A5" transform="translate(313,65)"/>
<path d="M0 0 C0.66 0 1.32 0 2 0 C2.83887056 2.43572059 3.67126529 4.87333217 4.5 7.3125 C4.73847656 8.00279297 4.97695313 8.69308594 5.22265625 9.40429688 C6.23208263 12.38931489 7 14.82658914 7 18 C3.04 18 -0.92 18 -5 18 C-4.35702496 15.37426939 -3.71075589 12.74942697 -3.0625 10.125 C-2.88009766 9.37863281 -2.69769531 8.63226563 -2.50976562 7.86328125 C-1.11328125 2.2265625 -1.11328125 2.2265625 0 0 Z " fill="#EAF6F8" transform="translate(607,50)"/>
<path d="M0 0 C2 1 2 1 3.0703125 3.58203125 C3.59238281 5.18111328 3.59238281 5.18111328 4.125 6.8125 C4.47820312 7.87082031 4.83140625 8.92914063 5.1953125 10.01953125 C6 13 6 13 6 17 C2.04 17 -1.92 17 -6 17 C-3 5.28571429 -3 5.28571429 0 0 Z " fill="#EAF6F9" transform="translate(300,51)"/>
<path d="M0 0 C0.66 0 1.32 0 2 0 C2.83887056 2.43572059 3.67126529 4.87333217 4.5 7.3125 C4.73847656 8.00279297 4.97695313 8.69308594 5.22265625 9.40429688 C6.23208263 12.38931489 7 14.82658914 7 18 C3.37 18 -0.26 18 -4 18 C-3.31195504 11.80759538 -1.71951285 5.98044406 0 0 Z " fill="#DFF0F3" transform="translate(480,50)"/>
<path d="M0 0 C1.98 0 3.96 0 6 0 C6.69685498 1.6210103 7.38222861 3.24696066 8.0625 4.875 C8.44535156 5.77992187 8.82820313 6.68484375 9.22265625 7.6171875 C10 10 10 10 9 12 C8.01 12 7.02 12 6 12 C6.04125 11.21625 6.0825 10.4325 6.125 9.625 C6.28728734 6.83883881 6.28728734 6.83883881 4 5 C4.66 5 5.32 5 6 5 C6 4.34 6 3.68 6 3 C4.68 2.67 3.36 2.34 2 2 C1.01 3.485 1.01 3.485 0 5 C0.56847656 5.76570313 0.56847656 5.76570313 1.1484375 6.546875 C2.40889947 10.1779306 0.99336681 12.8498158 -0.375 16.25 C-0.6225 16.8996875 -0.87 17.549375 -1.125 18.21875 C-1.73639014 19.81777037 -2.36640959 21.40964556 -3 23 C-5.475 22.01 -5.475 22.01 -8 21 C-7.04490216 18.24883766 -6.08606018 15.49907912 -5.125 12.75 C-4.72087891 11.58404297 -4.72087891 11.58404297 -4.30859375 10.39453125 C-4.04433594 9.64042969 -3.78007812 8.88632812 -3.5078125 8.109375 C-3.26691895 7.41811523 -3.02602539 6.72685547 -2.77783203 6.01464844 C-1.97440978 3.93371924 -1.02798072 1.978378 0 0 Z " fill="#7D9FA2" transform="translate(299,41)"/>
<path d="M0 0 C0.33 0 0.66 0 1 0 C1.33 5.61 1.66 11.22 2 17 C2.66 16.67 3.32 16.34 4 16 C8.6875 19.515625 8.6875 19.515625 10 21 C10 22.32 10 23.64 10 25 C5.38 25 0.76 25 -4 25 C-3.67 23.35 -3.34 21.7 -3 20 C-2.34 20 -1.68 20 -1 20 C-0.67 13.4 -0.34 6.8 0 0 Z " fill="#84A4A6" transform="translate(227,64)"/>
<path d="M0 0 C0.33 0.99 0.66 1.98 1 3 C1.99 3 2.98 3 4 3 C4.12375 3.969375 4.2475 4.93875 4.375 5.9375 C4.58125 6.948125 4.7875 7.95875 5 9 C5.66 9.33 6.32 9.66 7 10 C7 11.32 7 12.64 7 14 C2.05 14 -2.9 14 -8 14 C-8 12.68 -8 11.36 -8 10 C-7.236875 9.835 -6.47375 9.67 -5.6875 9.5 C-1.75515165 7.30520092 -1.19503462 4.1777633 0 0 Z " fill="#87A7AA" transform="translate(467,75)"/>
<path d="M0 0 C3.875 2.625 3.875 2.625 5 6 C7.00016466 7.20882096 7.00016466 7.20882096 9 8 C9 9.32 9 10.64 9 12 C4.05 12 -0.9 12 -6 12 C-4.96353258 6.8176629 -4.54601425 6.32438836 -1 3 C-0.67 2.01 -0.34 1.02 0 0 Z " fill="#7B9EA0" transform="translate(593,77)"/>
<path d="M0 0 C1.32 0.66 2.64 1.32 4 2 C3.67 3.32 3.34 4.64 3 6 C6.63 6 10.26 6 14 6 C14 6.33 14 6.66 14 7 C11.03 7 8.06 7 5 7 C5 7.66 5 8.32 5 9 C8.63 9 12.26 9 16 9 C16 9.33 16 9.66 16 10 C11.38 10.33 6.76 10.66 2 11 C1.67 11.99 1.34 12.98 1 14 C-1.5625 15.1875 -1.5625 15.1875 -4 16 C-3.47606294 10.13190493 -2.23891142 5.45126259 0 0 Z " fill="#6C9194" transform="translate(291,62)"/>
<path d="M0 0 C1.56047445 0.00015913 3.12095416 0.00585397 4.68139648 0.01586914 C5.5012352 0.01728409 6.32107391 0.01869904 7.16575623 0.02015686 C9.79470406 0.0257725 12.42356797 0.0383276 15.05249023 0.05102539 C16.8304838 0.05603838 18.60847869 0.06060163 20.38647461 0.06469727 C24.75434569 0.07574701 29.12215371 0.09302208 33.48999023 0.11352539 C33.15999023 0.77352539 32.82999023 1.43352539 32.48999023 2.11352539 C31.82999023 2.11352539 31.16999023 2.11352539 30.48999023 2.11352539 C30.48999023 2.77352539 30.48999023 3.43352539 30.48999023 4.11352539 C29.91635742 3.96915039 29.34272461 3.82477539 28.75170898 3.67602539 C15.04305511 0.6805077 0.91267151 1.06503265 -12.51000977 5.11352539 C-12.51000977 4.12352539 -12.51000977 3.13352539 -12.51000977 2.11352539 C-10.45922852 1.88566081 -8.40844727 1.65779622 -6.35766602 1.42993164 C-3.22794933 0.89397593 -3.85913332 0.12481721 0 0 Z " fill="#E8F9FA" transform="translate(124.510009765625,-0.113525390625)"/>
<path d="M0 0 C2.5654594 2.5654594 2.54046087 4.47686668 3 8 C4.65 8.33 6.3 8.66 8 9 C8.33 8.01 8.66 7.02 9 6 C9 7.32 9 8.64 9 10 C3.39 10 -2.22 10 -8 10 C-8 8.35 -8 6.7 -8 5 C-7.01 5 -6.02 5 -5 5 C-5 4.34 -5 3.68 -5 3 C-2.5 1.375 -2.5 1.375 0 0 Z " fill="#82A4A8" transform="translate(496,79)"/>
<path d="M0 0 C2 1.8125 2 1.8125 4 4 C4 4.99 4 5.98 4 7 C5.32 7 6.64 7 8 7 C8 9.31 8 11.62 8 14 C6.02 14.99 6.02 14.99 4 16 C-0.39973696 10.77531236 -0.47617251 6.69286912 0 0 Z " fill="#71989C" transform="translate(348,59)"/>
<path d="M0 0 C0.99386719 0.00902344 1.98773438 0.01804688 3.01171875 0.02734375 C4.15060547 0.04474609 4.15060547 0.04474609 5.3125 0.0625 C4.9825 1.7125 4.6525 3.3625 4.3125 5.0625 C3.70921875 5.11148438 3.1059375 5.16046875 2.484375 5.2109375 C1.68515625 5.28570312 0.8859375 5.36046875 0.0625 5.4375 C-0.72640625 5.50710937 -1.5153125 5.57671875 -2.328125 5.6484375 C-4.773377 6.07757113 -6.53586903 6.84850638 -8.6875 8.0625 C-8.501875 7.27875 -8.31625 6.495 -8.125 5.6875 C-7.42787734 3.09160225 -7.42787734 3.09160225 -8.6875 1.0625 C-5.53819107 0.01273036 -3.29935544 -0.03881595 0 0 Z " fill="#7B9FA2" transform="translate(398.6875,39.9375)"/>
<path d="M0 0 C0.33 0.66 0.66 1.32 1 2 C2.6396875 1.443125 2.6396875 1.443125 4.3125 0.875 C5.529375 0.58625 6.74625 0.2975 8 0 C8.99 0.66 9.98 1.32 11 2 C11 3.32 11 4.64 11 6 C6.38 6 1.76 6 -3 6 C-3 4.68 -3 3.36 -3 2 C-2.01 1.34 -1.02 0.68 0 0 Z " fill="#81A1A4" transform="translate(331,83)"/>
<path d="M0 0 C1.65 0 3.3 0 5 0 C5.67154933 1.28913487 6.33708859 2.58140204 7 3.875 C7.37125 4.59429687 7.7425 5.31359375 8.125 6.0546875 C9 8 9 8 9 10 C8.01 9.67 7.02 9.34 6 9 C6 8.01 6 7.02 6 6 C4.35 6.66 2.7 7.32 1 8 C1.185625 8.5775 1.37125 9.155 1.5625 9.75 C2.04023546 12.20692525 1.75729364 13.64397534 1 16 C1.66 16.33 2.32 16.66 3 17 C2.01 17 1.02 17 0 17 C0 11.39 0 5.78 0 0 Z " fill="#E9F8F9" transform="translate(558,68)"/>
<path d="M0 0 C2.64 0 5.28 0 8 0 C8 13.2 8 26.4 8 40 C6.68 39.67 5.36 39.34 4 39 C4.99 39 5.98 39 7 39 C6.67 26.46 6.34 13.92 6 1 C4.35 1.66 2.7 2.32 1 3 C0.01 2.67 -0.98 2.34 -2 2 C-1.34 1.34 -0.68 0.68 0 0 Z " fill="#D4E8EB" transform="translate(509,45)"/>
<path d="M0 0 C2.125 0.375 2.125 0.375 4 1 C4 2.65 4 4.3 4 6 C-1.61 6 -7.22 6 -13 6 C-13 4.68 -13 3.36 -13 2 C-12.01 1.67 -11.02 1.34 -10 1 C-10 1.99 -10 2.98 -10 4 C-8.72125 3.71125 -7.4425 3.4225 -6.125 3.125 C-5.40570312 2.96257812 -4.68640625 2.80015625 -3.9453125 2.6328125 C-1.79280036 2.09525572 -1.79280036 2.09525572 0 0 Z " fill="#8AA7AA" transform="translate(627,83)"/>
<path d="M0 0 C2.97 0.33 5.94 0.66 9 1 C9 2.98 9 4.96 9 7 C6.08517222 7.80967438 4.53886783 8.21845993 1.6875 7.0625 C1.130625 6.711875 0.57375 6.36125 0 6 C0 4.02 0 2.04 0 0 Z " fill="#779FAB" transform="translate(111,60)"/>
<path d="M0 0 C5.94 0 11.88 0 18 0 C18.33 0.99 18.66 1.98 19 3 C18.67 3.66 18.34 4.32 18 5 C14.7 4.67 11.4 4.34 8 4 C8 3.67 8 3.34 8 3 C5.36 2.67 2.72 2.34 0 2 C0 1.34 0 0.68 0 0 Z " fill="#6C9194" transform="translate(551,41)"/>
<path d="M0 0 C0.86625 0.37125 0.86625 0.37125 1.75 0.75 C2.08 3.06 2.41 5.37 2.75 7.75 C-0.20664519 9.2283226 -2.99229737 8.81032783 -6.25 8.75 C-6.62010337 5.4190697 -6.52461204 4.12268777 -4.5 1.375 C-2.25 -0.25 -2.25 -0.25 0 0 Z " fill="#EEF9FB" transform="translate(482.25,59.25)"/>
<path d="M0 0 C4.29 0 8.58 0 13 0 C13.33 1.32 13.66 2.64 14 4 C13.34 4 12.68 4 12 4 C12 4.33 12 4.66 12 5 C8.37 5 4.74 5 1 5 C0.67 3.35 0.34 1.7 0 0 Z " fill="#7C9EA1" transform="translate(476,68)"/>
<path d="M0 0 C0.99 0 1.98 0 3 0 C3 0.66 3 1.32 3 2 C3.66 2 4.32 2 5 2 C5 2.99 5 3.98 5 5 C5.33 5.99 5.66 6.98 6 8 C6.03874921 9.66621616 6.0450286 11.33394172 6 13 C1.17525773 10.5257732 1.17525773 10.5257732 0.3125 7.9375 C0.209375 7.298125 0.10625 6.65875 0 6 C-0.66 5.34 -1.32 4.68 -2 4 C-1.34 2.68 -0.68 1.36 0 0 Z " fill="#6E9799" transform="translate(300,42)"/>
<path d="M0 0 C2.7972908 2.06756277 3.02692273 3.14440371 3.6875 6.6875 C3.790625 7.780625 3.89375 8.87375 4 10 C3.01 10.495 3.01 10.495 2 11 C1.34 10.67 0.68 10.34 0 10 C-0.33 10.66 -0.66 11.32 -1 12 C-1.66 11.67 -2.32 11.34 -3 11 C-2.32829194 7.1936543 -1.27253436 3.64793184 0 0 Z " fill="#6D979A" transform="translate(415,62)"/>
<path d="M0 0 C0.99 0 1.98 0 3 0 C3.33 0.33 3.66 0.66 4 1 C4.66 0.67 5.32 0.34 6 0 C6 0.66 6 1.32 6 2 C6.66 2 7.32 2 8 2 C8 2.66 8 3.32 8 4 C10.97 4 13.94 4 17 4 C17 4.33 17 4.66 17 5 C11.39 5 5.78 5 0 5 C0 3.35 0 1.7 0 0 Z " fill="#8FABAE" transform="translate(435,84)"/>
<path d="M0 0 C1.0194119 0.98020375 2.02246356 1.97803008 3 3 C-1.86051596 5.59227518 -6.65271133 5.18689553 -12 5 C-12 4.67 -12 4.34 -12 4 C-7.545 3.505 -7.545 3.505 -3 3 C-4.98 2.34 -6.96 1.68 -9 1 C-9 0.67 -9 0.34 -9 0 C-2.25 -1.125 -2.25 -1.125 0 0 Z " fill="#93AFB2" transform="translate(405,85)"/>
<path d="M0 0 C0.66 0.33 1.32 0.66 2 1 C1 4 1 4 -1 5 C-1.91280138 7.57437581 -1.91280138 7.57437581 -2.625 10.5625 C-2.88539062 11.57441406 -3.14578125 12.58632812 -3.4140625 13.62890625 C-3.60742188 14.41136719 -3.80078125 15.19382812 -4 16 C-4.33 16 -4.66 16 -5 16 C-5.29209024 10.35292212 -5.0637112 6.94907193 -2 2 C-1.34 1.34 -0.68 0.68 0 0 Z " fill="#A3C8E5" transform="translate(86,58)"/>
<path d="M0 0 C0.99 0.33 1.98 0.66 3 1 C4.1875 3.5625 4.1875 3.5625 5 6 C2 8 2 8 -1 8 C-1.125 2.25 -1.125 2.25 0 0 Z " fill="#699395" transform="translate(599,65)"/>
<path d="M0 0 C0.66 0.99 1.32 1.98 2 3 C1.67 3.66 1.34 4.32 1 5 C1.33 5.33 1.66 5.66 2 6 C2.36442233 7.66014616 2.69972883 9.32706064 3 11 C1.02 11.99 1.02 11.99 -1 13 C-2.42857143 4.57142857 -2.42857143 4.57142857 0 0 Z " fill="#7BA0A3" transform="translate(473,57)"/>
<path d="M0 0 C4.29 0 8.58 0 13 0 C12.67 0.66 12.34 1.32 12 2 C9.03 1.505 9.03 1.505 6 1 C6.33 1.99 6.66 2.98 7 4 C4.69 4 2.38 4 0 4 C0 2.68 0 1.36 0 0 Z " fill="#739597" transform="translate(451,41)"/>
<path d="M0 0 C2.475 0.99 2.475 0.99 5 2 C5 2.99 5 3.98 5 5 C0.38 5 -4.24 5 -9 5 C-9 4.67 -9 4.34 -9 4 C-6.36 3.67 -3.72 3.34 -1 3 C-0.67 2.01 -0.34 1.02 0 0 Z " fill="#739598" transform="translate(499,83)"/>
<path d="M0 0 C0.66 0 1.32 0 2 0 C1.67 1.32 1.34 2.64 1 4 C0.34 4 -0.32 4 -1 4 C-1.103125 4.598125 -1.20625 5.19625 -1.3125 5.8125 C-2.09824033 8.31258286 -2.96918853 9.37535082 -5 11 C-5.66 11 -6.32 11 -7 11 C-7 10.01 -7 9.02 -7 8 C-6.34 8 -5.68 8 -5 8 C-4.67 7.01 -4.34 6.02 -4 5 C-3.34 5 -2.68 5 -2 5 C-1.34 3.35 -0.68 1.7 0 0 Z " fill="#EBF6F8" transform="translate(329,81)"/>
<path d="M0 0 C0.66 0.99 1.32 1.98 2 3 C1.01 4.485 1.01 4.485 0 6 C-3.125 6.1875 -3.125 6.1875 -6 6 C-6.33 5.34 -6.66 4.68 -7 4 C-6.34 4 -5.68 4 -5 4 C-4.67 3.01 -4.34 2.02 -4 1 C-1.9375 0.3125 -1.9375 0.3125 0 0 Z " fill="#729B9F" transform="translate(161,7)"/>
<path d="M0 0 C0.33 0 0.66 0 1 0 C1.05410687 1.77049689 1.09284119 3.54146849 1.125 5.3125 C1.14820313 6.29863281 1.17140625 7.28476563 1.1953125 8.30078125 C1 11 1 11 -1 14 C-1.33 13.67 -1.66 13.34 -2 13 C-1.93588312 11.1843265 -1.79902523 9.3709514 -1.625 7.5625 C-1.53476562 6.57378906 -1.44453125 5.58507813 -1.3515625 4.56640625 C-1 2 -1 2 0 0 Z " fill="#87A6A9" transform="translate(420,58)"/>
<path d="M0 0 C-0.33 1.98 -0.66 3.96 -1 6 C-2.32 5.67 -3.64 5.34 -5 5 C-5 5.66 -5 6.32 -5 7 C-5.66 7 -6.32 7 -7 7 C-6.75 4.625 -6.75 4.625 -6 2 C-3.84898936 0.54286376 -2.59713506 0 0 0 Z " fill="#7DA0A2" transform="translate(604,60)"/>
<path d="M0 0 C0 0.33 0 0.66 0 1 C-1.0725 1.103125 -2.145 1.20625 -3.25 1.3125 C-6.99918971 1.99985145 -8.10133762 2.80101475 -11 5 C-13.25 4.6875 -13.25 4.6875 -15 4 C-9.98010898 -0.11888494 -6.40141012 -0.51211281 0 0 Z " fill="#A4CAE5" transform="translate(113,28)"/>
<path d="M0 0 C3.82669043 3.42388092 5.72278474 6.00724943 7 11 C6.34 11 5.68 11 5 11 C5 10.01 5 9.02 5 8 C4.360625 7.79375 3.72125 7.5875 3.0625 7.375 C1 6 1 6 0.25 2.875 C0.1675 1.92625 0.085 0.9775 0 0 Z " fill="#7AA1B1" transform="translate(133,95)"/>
<path d="M0 0 C2 1 4 2 6 3 C6 3.99 6 4.98 6 6 C3.03 5.505 3.03 5.505 0 5 C-0.33 4.01 -0.66 3.02 -1 2 C-0.67 1.34 -0.34 0.68 0 0 Z " fill="#73989A" transform="translate(468,82)"/>
<path d="M0 0 C0.33 0.99 0.66 1.98 1 3 C1.99 3 2.98 3 4 3 C4 4.98 4 6.96 4 9 C3.34 8.67 2.68 8.34 2 8 C1.67 8.33 1.34 8.66 1 9 C0.67 8.01 0.34 7.02 0 6 C0.33 5.34 0.66 4.68 1 4 C0.34 4 -0.32 4 -1 4 C-0.67 2.68 -0.34 1.36 0 0 Z " fill="#7DA0A3" transform="translate(467,75)"/>
<path d="M0 0 C0.99 0.33 1.98 0.66 3 1 C3.33 2.98 3.66 4.96 4 7 C2.68 7 1.36 7 0 7 C0 4.69 0 2.38 0 0 Z " fill="#698D90" transform="translate(468,71)"/>
<path d="M0 0 C2.64 0 5.28 0 8 0 C7.34 1.65 6.68 3.3 6 5 C5.67 4.34 5.34 3.68 5 3 C3.35 3 1.7 3 0 3 C0 2.01 0 1.02 0 0 Z " fill="#719598" transform="translate(558,64)"/>
<path d="M0 0 C1.32 0 2.64 0 4 0 C3.67 1.65 3.34 3.3 3 5 C0.69 5 -1.62 5 -4 5 C-2.68 4.34 -1.36 3.68 0 3 C0 2.01 0 1.02 0 0 Z " fill="#88A8AB" transform="translate(400,40)"/>
<path d="M0 0 C2.79872437 2.52788007 4.45773019 4.20411134 5 8 C4.01 7.67 3.02 7.34 2 7 C1.67 7.66 1.34 8.32 1 9 C-0.06546953 5.8035914 -0.07427838 3.34252724 0 0 Z " fill="#A8CCF0" transform="translate(141,78)"/>
<path d="M0 0 C2.475 0.99 2.475 0.99 5 2 C4.34 3.98 3.68 5.96 3 8 C0.9375 6.25 0.9375 6.25 -1 4 C-0.75 1.75 -0.75 1.75 0 0 Z " fill="#83A4A6" transform="translate(252,67)"/>
<path d="M0 0 C3.63 0 7.26 0 11 0 C5.95238095 2.52380952 5.95238095 2.52380952 3 3 C2.01 2.67 1.02 2.34 0 2 C-0.33 2.99 -0.66 3.98 -1 5 C-0.67 3.35 -0.34 1.7 0 0 Z " fill="#94B0B2" transform="translate(328,40)"/>
<path d="M0 0 C4.95 0 9.9 0 15 0 C15 0.33 15 0.66 15 1 C14.18015625 1.04898438 13.3603125 1.09796875 12.515625 1.1484375 C11.43796875 1.22320312 10.3603125 1.29796875 9.25 1.375 C7.64898437 1.47941406 7.64898437 1.47941406 6.015625 1.5859375 C3.19793568 1.9728223 1.4169634 2.55686166 -1 4 C-0.67 2.68 -0.34 1.36 0 0 Z " fill="#DEF2F5" transform="translate(293,72)"/>
<path d="M0 0 C0.99 0.33 1.98 0.66 3 1 C3 2.32 3 3.64 3 5 C0.03 5 -2.94 5 -6 5 C-5.34 4.34 -4.68 3.68 -4 3 C-3.01 3 -2.02 3 -1 3 C-0.67 2.01 -0.34 1.02 0 0 Z " fill="#839EA1" transform="translate(291,84)"/>
<path d="M0 0 C0.33 0 0.66 0 1 0 C1.33 3.3 1.66 6.6 2 10 C1.01 10 0.02 10 -1 10 C-2.15837626 5.94568308 -1.83691257 3.78187881 0 0 Z " fill="#E6F5F7" transform="translate(308,74)"/>
<path d="M0 0 C0.33 0 0.66 0 1 0 C1.3125 2.1875 1.3125 2.1875 1 5 C-1.5 7.8125 -1.5 7.8125 -4 10 C-3.52449439 8.51965236 -3.04448784 7.04074979 -2.5625 5.5625 C-2.29566406 4.73878906 -2.02882812 3.91507812 -1.75390625 3.06640625 C-1 1 -1 1 0 0 Z " fill="#E3F5F6" transform="translate(176,115)"/>
<path d="M0 0 C2.31 0.33 4.62 0.66 7 1 C6.67 1.66 6.34 2.32 6 3 C3.36 3 0.72 3 -2 3 C-1.34 2.67 -0.68 2.34 0 2 C0 1.34 0 0.68 0 0 Z " fill="#719598" transform="translate(396,86)"/>
<path d="M0 0 C1.98 0 3.96 0 6 0 C6.66 1.32 7.32 2.64 8 4 C6.35 4 4.7 4 3 4 C3 3.01 3 2.02 3 1 C2.01 1.33 1.02 1.66 0 2 C0 1.34 0 0.68 0 0 Z " fill="#729497" transform="translate(607,68)"/>
<path d="M0 0 C0.66 0 1.32 0 2 0 C2.33 2.31 2.66 4.62 3 7 C1.68 7 0.36 7 -1 7 C-0.67 4.69 -0.34 2.38 0 0 Z " fill="#7B9FA1" transform="translate(503,47)"/>
<path d="M0 0 C1.99097846 2.98646769 2.94124926 5.59687262 4 9 C3.01 9 2.02 9 1 9 C0.67 6.03 0.34 3.06 0 0 Z " fill="#E0F1F3" transform="translate(242,75)"/>
<path d="M0 0 C0.33 0 0.66 0 1 0 C1 2.31 1 4.62 1 7 C0.34 7 -0.32 7 -1 7 C-1 7.99 -1 8.98 -1 10 C-1.99 10 -2.98 10 -4 10 C-3.71125 9.46375 -3.4225 8.9275 -3.125 8.375 C-1.83288192 5.64719516 -0.91441408 2.87387282 0 0 Z " fill="#84A2A5" transform="translate(571,54)"/>
<path d="M0 0 C0.66 0 1.32 0 2 0 C2 4.26826873 1.62386487 4.93882432 -1 8 C-1.93065133 5.39417629 -2.14917407 4.35801776 -1.0625 1.75 C-0.711875 1.1725 -0.36125 0.595 0 0 Z " fill="#81A0A2" transform="translate(379,52)"/>
<path d="M0 0 C0.66 0 1.32 0 2 0 C2.66 2.64 3.32 5.28 4 8 C3.01 8.495 3.01 8.495 2 9 C2 7.35 2 5.7 2 4 C1.01 4 0.02 4 -1 4 C-0.67 2.68 -0.34 1.36 0 0 Z " fill="#D9EDEF" transform="translate(607,50)"/>
<path d="M0 0 C0.66 0 1.32 0 2 0 C2.33 0.99 2.66 1.98 3 3 C1.02 4.32 -0.96 5.64 -3 7 C-1.125 1.125 -1.125 1.125 0 0 Z " fill="#E7F5F7" transform="translate(458,49)"/>
<path d="M0 0 C0.33 1.32 0.66 2.64 1 4 C-0.65 4 -2.3 4 -4 4 C-4 3.01 -4 2.02 -4 1 C-2.68 0.67 -1.36 0.34 0 0 Z " fill="#809C9F" transform="translate(365,85)"/>
<path d="M0 0 C0.66 1.32 1.32 2.64 2 4 C0.68 5.32 -0.64 6.64 -2 8 C-2.66 7.67 -3.32 7.34 -4 7 C-2.68 4.69 -1.36 2.38 0 0 Z " fill="#83A0A4" transform="translate(67,70)"/>
<path d="M0 0 C1.32 0.66 2.64 1.32 4 2 C4 2.66 4 3.32 4 4 C2.35 4.33 0.7 4.66 -1 5 C-0.67 3.35 -0.34 1.7 0 0 Z " fill="#75969A" transform="translate(291,62)"/>
<path d="M0 0 C0.66 0.33 1.32 0.66 2 1 C2.99 1 3.98 1 5 1 C4.34 2.65 3.68 4.3 3 6 C1.68 4.68 0.36 3.36 -1 2 C-0.67 1.34 -0.34 0.68 0 0 Z " fill="#81A4A6" transform="translate(450,54)"/>
<path d="M0 0 C1.32 0.33 2.64 0.66 4 1 C4.33 2.32 4.66 3.64 5 5 C2.525 4.01 2.525 4.01 0 3 C0 2.01 0 1.02 0 0 Z " fill="#6C8F92" transform="translate(328,42)"/>
<path d="M0 0 C0.66 0 1.32 0 2 0 C2.66 2.31 3.32 4.62 4 7 C3.01 6.67 2.02 6.34 1 6 C1 5.01 1 4.02 1 3 C0.01 2.67 -0.98 2.34 -2 2 C-1.34 1.34 -0.68 0.68 0 0 Z " fill="#81A1A3" transform="translate(484,41)"/>
<path d="M0 0 C3.3 0 6.6 0 10 0 C10 0.33 10 0.66 10 1 C6.7 1.66 3.4 2.32 0 3 C0 2.01 0 1.02 0 0 Z " fill="#E5F5F7" transform="translate(112,2)"/>
</svg>
